<svg width="33" height="33" viewBox="0 0 33 33" fill="none" xmlns="http://www.w3.org/2000/svg">
<path fill-rule="evenodd" clip-rule="evenodd" d="M13.8033 4.8594C12.9916 3.79062 11.5126 3.34779 10.2366 4.00129C9.60912 4.32264 8.84824 4.75105 8.16359 5.24738C5.36641 7.27514 5.16041 11.1009 7.02498 13.7618C8.27208 15.5415 10.0845 17.8048 12.6464 20.3666C15.208 22.9282 17.4711 24.7406 19.2507 25.9877C21.9138 27.8538 25.7362 27.6491 27.7657 24.8494C28.2734 24.149 28.7015 23.3911 29.0206 22.7674C29.6726 21.4933 29.2245 20.0231 28.1627 19.2166L25.8686 17.4743C24.4157 16.3708 22.3711 16.5099 21.0811 17.7999C20.9543 17.9267 20.7488 17.9267 20.622 17.7999L15.2131 12.391C15.0863 12.2642 15.0863 12.0587 15.2131 11.9319C16.5032 10.6419 16.6422 8.59727 15.5388 7.14438L13.8033 4.8594ZM11.1483 5.78142C11.4813 5.61083 11.9289 5.69814 12.2106 6.06907L13.9461 8.35405C14.4448 9.01067 14.3819 9.9347 13.7989 10.5177C12.8911 11.4255 12.8911 12.8974 13.7989 13.8052L19.2078 19.2141C20.1156 20.122 21.5875 20.122 22.4953 19.2141C23.0783 18.6311 24.0023 18.5683 24.659 19.067L26.953 20.8093C27.3224 21.0898 27.4069 21.5305 27.2402 21.8564C26.9477 22.428 26.5723 23.088 26.1464 23.6756C24.8754 25.4289 22.3407 25.7108 20.3985 24.3498C18.7125 23.1684 16.5388 21.4306 14.0606 18.9524C11.5822 16.474 9.84433 14.3001 8.66287 12.6141C7.30364 10.6743 7.58635 8.13608 9.33746 6.86665C9.90685 6.45387 10.5684 6.0784 11.1483 5.78142Z" fill="#CB8962"/>
<path d="M21.0549 4.13909C20.5101 4.0483 19.9949 4.41632 19.9041 4.96109C19.8133 5.50586 20.1813 6.02109 20.7261 6.11188L21.0896 6.17246C24.0399 6.66418 26.3518 8.97611 26.8435 11.9264L26.9041 12.2899C26.9949 12.8347 27.5101 13.2027 28.0549 13.1119C28.5997 13.0211 28.9677 12.5059 28.8769 11.9611L28.8163 11.5976C28.1841 7.80437 25.2116 4.83188 21.4184 4.19967L21.0549 4.13909Z" fill="#CB8962"/>
<path d="M20.0319 8.13554C19.4852 8.05743 18.9787 8.43733 18.9006 8.98407C18.8225 9.5308 19.2024 10.0373 19.7491 10.1154L20.2792 10.1912C21.5992 10.3797 22.6363 11.4168 22.8248 12.7368L22.9006 13.2669C22.9787 13.8136 23.4852 14.1935 24.0319 14.1154C24.5787 14.0373 24.9586 13.5308 24.8805 12.9841L24.8047 12.4539C24.4905 10.254 22.762 8.52554 20.5621 8.21128L20.0319 8.13554Z" fill="#CB8962"/>
</svg>
