<svg width="33" height="33" viewBox="0 0 33 33" fill="none" xmlns="http://www.w3.org/2000/svg">
<path d="M9.42059 10.277C8.95225 9.98429 8.3353 10.1267 8.04259 10.595C7.74988 11.0633 7.89225 11.6803 8.36059 11.973L16.3606 16.973C16.6849 17.1757 17.0963 17.1757 17.4206 16.973L25.4206 11.973C25.889 11.6803 26.0313 11.0633 25.7386 10.595C25.4459 10.1267 24.829 9.98429 24.3606 10.277L16.8906 14.9458L9.42059 10.277Z" fill="#CB8962"/>
<path d="M12.4906 16.325C12.9325 16.6564 13.022 17.2832 12.6906 17.725L9.69063 21.725C9.35925 22.1668 8.73245 22.2564 8.29063 21.925C7.8488 21.5936 7.75925 20.9668 8.09062 20.525L11.0906 16.525C11.422 16.0832 12.0488 15.9936 12.4906 16.325Z" fill="#CB8962"/>
<path d="M21.0906 17.725C20.7593 17.2832 20.8488 16.6564 21.2906 16.325C21.7325 15.9936 22.3593 16.0832 22.6906 16.525L25.6906 20.525C26.022 20.9668 25.9325 21.5936 25.4906 21.925C25.0488 22.2564 24.422 22.1668 24.0906 21.725L21.0906 17.725Z" fill="#CB8962"/>
<path fill-rule="evenodd" clip-rule="evenodd" d="M7.89062 6.125C5.68149 6.125 3.89062 7.91586 3.89062 10.125V22.125C3.89062 24.3341 5.68149 26.125 7.89062 26.125H25.8906C28.0998 26.125 29.8906 24.3341 29.8906 22.125V10.125C29.8906 7.91586 28.0998 6.125 25.8906 6.125H7.89062ZM5.89062 10.125C5.89062 9.02043 6.78606 8.125 7.89062 8.125H25.8906C26.9952 8.125 27.8906 9.02043 27.8906 10.125V22.125C27.8906 23.2296 26.9952 24.125 25.8906 24.125H7.89062C6.78606 24.125 5.89062 23.2296 5.89062 22.125V10.125Z" fill="#CB8962"/>
</svg>
