<svg width="33" height="33" viewBox="0 0 33 33" fill="none" xmlns="http://www.w3.org/2000/svg">
<path d="M16.8902 4.625C10.6749 4.625 5.61865 9.68149 5.61865 15.8966C5.61865 18.3291 6.60595 20.5132 7.03053 21.3394C7.2282 21.7242 7.7005 21.8756 8.08508 21.678C8.46977 21.4803 8.62139 21.0081 8.42372 20.6235C8.05135 19.8987 7.18507 17.9871 7.18507 15.8965C7.18497 10.5452 11.5387 6.19132 16.8902 6.19132C22.2422 6.19132 26.5962 10.5452 26.5962 15.8966C26.5962 21.2483 22.2422 25.6022 16.8902 25.6022C14.7972 25.6022 13.134 24.8775 12.5161 24.5658C12.3328 24.4733 12.1205 24.4566 11.9251 24.5191L6.992 26.0955C6.58006 26.2272 6.35273 26.6679 6.48441 27.0799C6.59071 27.4127 6.89875 27.6249 7.23018 27.6249C7.30923 27.6249 7.38953 27.6129 7.46879 27.5875L12.1041 26.1062C13.0739 26.5564 14.7808 27.1685 16.8902 27.1685C23.1057 27.1685 28.1625 22.112 28.1625 15.8966C28.1625 9.68149 23.1057 4.625 16.8902 4.625Z" fill="#CB8962"/>
<path d="M14.6681 13.9745C14.3251 14.238 14.2606 14.7296 14.524 15.0727C14.7874 15.4158 15.2789 15.4803 15.6222 15.2168C15.8622 15.0324 16.4999 14.5427 16.4066 13.6667C16.349 13.146 15.8409 12.4314 15.4248 11.9238C14.8159 11.181 14.3005 10.741 13.8958 10.6172C13.5165 10.4996 13.1279 10.5182 12.7403 10.6725C11.9429 10.9912 11.3802 11.5192 11.1129 12.1994C10.8525 12.8618 10.8998 13.6031 11.25 14.3439C12.0673 16.0691 13.1596 17.5591 14.4967 18.7727C14.5019 18.7776 14.5073 18.7824 14.5126 18.7872C15.8687 19.986 17.4731 20.9096 19.282 21.5328C19.6253 21.6506 19.9621 21.7094 20.2856 21.7094C20.692 21.7094 21.0774 21.6167 21.428 21.4319C22.0745 21.0911 22.537 20.4736 22.766 19.6447C22.8763 19.2429 22.8517 18.8549 22.6941 18.4936C22.525 18.1025 22.031 17.639 21.2255 17.1159C20.6753 16.7586 19.9097 16.3328 19.3835 16.3328C19.3832 16.3328 19.3828 16.3328 19.3824 16.3328C18.5046 16.3363 18.0879 17.0242 17.931 17.2832C17.7069 17.6532 17.8251 18.1348 18.1951 18.3589C18.5649 18.583 19.0466 18.4649 19.2707 18.0948C19.3327 17.9925 19.3719 17.9382 19.3966 17.9098C19.8389 18.0382 21.0221 18.8122 21.2646 19.1379C21.2685 19.1552 21.2691 19.1814 21.256 19.2291C21.1788 19.5084 21.0192 19.8769 20.6975 20.0465C20.3968 20.2048 20.0383 20.1366 19.7914 20.0519C18.1819 19.4974 16.7576 18.6796 15.5578 17.621C15.5575 17.6207 15.5571 17.6204 15.5568 17.62C14.3688 16.5436 13.396 15.2159 12.6656 13.6741C12.5538 13.4373 12.4463 13.0886 12.5706 12.7726C12.7036 12.434 13.0523 12.2348 13.3206 12.1275C13.3667 12.1092 13.3927 12.1063 13.4116 12.1089C13.7622 12.314 14.6614 13.4039 14.838 13.8294C14.8125 13.8569 14.7628 13.9018 14.6681 13.9745Z" fill="#CB8962"/>
</svg>
