<svg width="65" height="65" viewBox="0 0 65 65" fill="none" xmlns="http://www.w3.org/2000/svg">
<g clip-path="url(#clip0_14_51)">
<path d="M14.79 0.21582C13.6729 0.660156 12.835 1.52345 12.4033 2.64063C12.2002 3.13575 12.1875 16.8213 12.1875 16.8213L12.2129 59.5156C12.2129 59.5156 12.2764 62.1816 12.543 62.7402C12.9619 63.5781 13.6348 64.2129 14.5361 64.6318L15.3105 65L36.7021 64.9746L58.0811 64.9365L58.6777 64.6318C59.4522 64.251 60.1885 63.5146 60.5693 62.7402L60.874 62.1436L60.9121 45.3223L60.9375 28.501V16.1442C60.9375 16.1442 45.4492 14.9678 44.9541 13.6475C44.7002 12.9619 44.6875 12.7334 44.6875 6.47461V7.62939e-06L29.999 0.0127106C16.7959 0.0127106 15.2471 0.0380859 14.79 0.21582Z" fill="#ECECEC"/>
<path opacity="0.15" d="M54.8438 21.7339C58.1572 25.0474 60.8867 27.7642 60.8994 27.7642C60.9248 27.7642 60.9375 25.0474 60.9375 21.7339V16.2498L48.8135 15.7036L54.8438 21.7339Z" fill="#898989"/>
<path d="M44.6875 6.33516C44.6875 10.8674 44.7256 12.8859 44.8398 13.2541C45.208 14.5617 46.4395 15.7551 47.7344 16.1105C48.1533 16.2121 50.0195 16.2502 54.6279 16.2248L60.9375 16.1867L52.8125 8.06172L44.6875 -0.063282V6.33516Z" fill="#090E0D"/>
<path opacity="0.15" d="M52.5205 53.3198C52.3936 53.561 52.0635 53.8784 51.7969 54.0308L51.3145 54.2974H31.751H12.1875V55.313V56.3286H31.6494H51.1113L51.6699 56.0366C52.4824 55.6431 52.8379 54.894 52.7871 53.7388L52.749 52.8882L52.5205 53.3198Z" fill="#898989"/>
<path d="M5.1543 30.6593C4.72266 30.8878 4.3291 31.3067 4.17676 31.713C4.02441 32.1065 4.02441 53.2061 4.17676 53.6124C4.3291 54.0186 4.8877 54.5772 5.29395 54.7296C5.71289 54.8819 50.54 54.8819 51.2256 54.7169C52 54.5391 52.6475 53.7901 52.749 52.9268C52.7871 52.546 52.8125 47.671 52.7871 42.085C52.749 32.1954 52.7363 31.9161 52.4951 31.5098C52.3555 31.2813 52.0381 30.9639 51.7969 30.8116L51.3525 30.5323L28.4375 30.4942C8.15039 30.4688 5.48438 30.4942 5.1543 30.6593Z" fill="#CB8962"/>
<path d="M15.0304 36.8193C16.1229 36.8193 17.0686 37.0014 17.8674 37.3656C18.678 37.7298 19.3006 38.2467 19.7353 38.9163C20.1699 39.5859 20.3872 40.3788 20.3872 41.2951C20.3872 42.1997 20.1699 42.9926 19.7353 43.674C19.3006 44.3436 18.678 44.8605 17.8674 45.2247C17.0686 45.5771 16.1229 45.7533 15.0304 45.7533H12.5458V49.1542H9.69116V36.8193H15.0304ZM14.8718 43.4273C15.7294 43.4273 16.3814 43.2452 16.8278 42.881C17.2742 42.5051 17.4974 41.9765 17.4974 41.2951C17.4974 40.602 17.2742 40.0734 16.8278 39.7092C16.3814 39.3333 15.7294 39.1453 14.8718 39.1453H12.5458V43.4273H14.8718Z" fill="white"/>
<path d="M23.3063 36.8193H28.9099C30.2491 36.8193 31.4297 37.0778 32.4517 37.5947C33.4855 38.0998 34.2843 38.8164 34.8482 39.7445C35.4238 40.6725 35.7116 41.7533 35.7116 42.9868C35.7116 44.2202 35.4238 45.301 34.8482 46.2291C34.2843 47.1571 33.4855 47.8796 32.4517 48.3965C31.4297 48.9016 30.2491 49.1542 28.9099 49.1542H23.3063V36.8193ZM28.7689 46.8106C30.0024 46.8106 30.9833 46.4699 31.7116 45.7885C32.4517 45.0954 32.8218 44.1615 32.8218 42.9868C32.8218 41.812 32.4517 40.884 31.7116 40.2026C30.9833 39.5095 30.0024 39.163 28.7689 39.163H26.1609V46.8106H28.7689Z" fill="white"/>
<path d="M41.6002 39.1101V42.37H47.3094V44.6608H41.6002V49.1542H38.7455V36.8193H48.0671V39.1101H41.6002Z" fill="white"/>
</g>
<defs>
<clipPath id="clip0_14_51">
<rect width="65" height="65" fill="white"/>
</clipPath>
</defs>
</svg>
