<svg width="23" height="22" viewBox="0 0 23 22" fill="none" xmlns="http://www.w3.org/2000/svg">
<path fill-rule="evenodd" clip-rule="evenodd" d="M7.5 4.95871H5.5V3.95182H3.5V6.97249H19.5V3.95182H17.5V4.95871H15.5V3.95182H7.5V4.95871ZM19.5 8.98627H3.5V19.0552H19.5V8.98627ZM15.5 1.93804H7.5V0.931152H5.5V1.93804H3.5C2.39543 1.93804 1.5 2.83964 1.5 3.95182V19.0552C1.5 20.1674 2.39543 21.069 3.5 21.069H19.5C20.6046 21.069 21.5 20.1674 21.5 19.0552V3.95182C21.5 2.83964 20.6046 1.93804 19.5 1.93804H17.5V0.931152H15.5V1.93804ZM6.5 13.0138V11.0001H8.5V13.0138H6.5ZM10.5 13.0138H12.5V11.0001H10.5V13.0138ZM14.5 13.0138V11.0001H16.5V13.0138H14.5ZM6.5 15.0276V17.0414H8.5V15.0276H6.5ZM12.5 17.0414H10.5V15.0276H12.5V17.0414Z" fill="#090E0D"/>
</svg>
