<svg width="23" height="21" viewBox="0 0 23 21" fill="none" xmlns="http://www.w3.org/2000/svg">
<g clip-path="url(#clip0_234_108)">
<path fill-rule="evenodd" clip-rule="evenodd" d="M5.7963 0.722168C5.53438 0.722168 5.28843 0.848074 5.13529 1.06055C4.98214 1.27303 4.94047 1.54617 5.0233 1.79465L5.48062 3.16661H4.16667C3.76836 3.16661 3.42842 3.45458 3.36294 3.84747L2.6616 8.0555H1.72222C1.27221 8.0555 0.90741 8.42031 0.90741 8.87032V13.7592C0.90741 13.8857 0.936861 14.0105 0.993432 14.1236L2.03346 16.2036H1.72222C1.27221 16.2036 0.90741 16.5685 0.90741 17.0185C0.90741 17.4685 1.27221 17.8333 1.72222 17.8333H21.2778C21.7278 17.8333 22.0926 17.4685 22.0926 17.0185C22.0926 16.5685 21.7278 16.2036 21.2778 16.2036H18.8603L21.7048 14.4532C21.9458 14.3049 22.0926 14.0422 22.0926 13.7592V11.3659C22.0926 10.9173 21.73 10.5531 21.2814 10.5511L20.1983 10.5463L17.1335 3.6505C17.0027 3.35625 16.7109 3.16661 16.3889 3.16661H13.7169L13.0878 1.27932C12.9769 0.946592 12.6655 0.722168 12.3148 0.722168H5.7963ZM11.9991 3.16661L11.7275 2.3518H6.92679L7.1984 3.16661H11.9991ZM18.4114 10.5382L18.0322 9.68513H11.5C11.2381 9.68513 10.9921 9.55923 10.839 9.34675C10.6858 9.13427 10.6442 8.86112 10.727 8.61265L11.5418 6.1682C11.6527 5.83548 11.9641 5.61106 12.3148 5.61106H16.2215L15.8594 4.79624H4.85692L4.31371 8.0555H8.24074C8.51318 8.0555 8.76759 8.19166 8.91871 8.41834L10.3078 10.5019L18.4114 10.5382ZM16.9458 7.24069L17.3079 8.0555H12.6305L12.9021 7.24069H16.9458ZM3.33846 9.68513C3.34807 9.6853 3.35765 9.6853 3.3672 9.68513H7.80467L9.19241 11.7667C9.34281 11.9923 9.59558 12.1284 9.86672 12.1296L20.463 12.1771V13.3039L15.7509 16.2036H3.85544L2.53704 13.5669V9.68513H3.33846Z" fill="#090E0D"/>
<path d="M0.90741 19.4629C0.90741 19.0129 1.27221 18.6481 1.72222 18.6481H12.3148C12.7648 18.6481 13.1296 19.0129 13.1296 19.4629C13.1296 19.9129 12.7648 20.2777 12.3148 20.2777H1.72222C1.27221 20.2777 0.90741 19.9129 0.90741 19.4629Z" fill="#090E0D"/>
<path d="M16.3889 18.6481C15.9389 18.6481 15.5741 19.0129 15.5741 19.4629C15.5741 19.9129 15.9389 20.2777 16.3889 20.2777H21.2778C21.7278 20.2777 22.0926 19.9129 22.0926 19.4629C22.0926 19.0129 21.7278 18.6481 21.2778 18.6481H16.3889Z" fill="#090E0D"/>
</g>
<defs>
<clipPath id="clip0_234_108">
<rect width="22" height="19.5556" fill="white" transform="translate(0.5 0.722168)"/>
</clipPath>
</defs>
</svg>
