<svg width="23" height="18" viewBox="0 0 23 18" fill="none" xmlns="http://www.w3.org/2000/svg">
<path d="M18.2947 1.28062C17.8664 1.4169 16.6398 2.03991 15.5885 2.66292L13.6805 3.79213L9.53363 3.53903C7.25575 3.42221 5.19204 3.36381 4.93894 3.44168C4.12124 3.69478 3.42035 4.31779 3.42035 4.78505C3.42035 5.27177 3.96549 5.56381 6.59381 6.45938C7.31416 6.71248 7.89823 6.96558 7.89823 7.02398C7.89823 7.08239 7.46991 7.35496 6.96372 7.62752L6.04867 8.13372L3.75133 7.86115C1.68761 7.60805 1.41504 7.62752 0.986726 7.90009C0.714159 8.07531 0.5 8.38682 0.5 8.58151C0.5 8.99036 3.94602 11.6381 4.72478 11.8328C5.05575 11.9302 6.16549 11.6771 8.15133 11.0541C9.74779 10.5479 11.0717 10.1585 11.1106 10.1974C11.1301 10.2364 10.9549 11.3461 10.7018 12.6895C10.4487 14.0328 10.254 15.5319 10.2345 16.0381C10.2345 16.9337 10.254 16.9727 10.7796 16.9727C11.0912 16.9727 11.6947 16.7196 12.1035 16.4275C12.746 15.9603 13.2133 15.1815 15.2575 11.093L17.6717 6.3231L19.1124 5.48593C20.6894 4.59036 22.5 2.95496 22.5 2.39036C22.5 1.24168 20.3195 0.657612 18.2947 1.28062ZM21.585 2.02044C21.8965 2.1762 21.8965 2.2346 21.4292 2.83814C20.9425 3.48062 19.5991 4.45407 18.0221 5.33018C15.2381 6.86823 15.1212 6.94611 15.4327 7.25761C15.5885 7.41336 15.7637 7.41336 16.0752 7.23814C16.6398 6.92664 16.7566 6.65407 14.2841 11.5019C12.5319 14.9479 12.1425 15.5514 11.5 15.9603L10.7602 16.4275L10.8965 15.9213C11.0522 15.2983 11.8115 10.2558 11.8504 9.57443C11.8894 9.22398 11.8115 9.10717 11.5973 9.16558C11.4416 9.20451 10.0398 9.67177 8.4823 10.1974C6.92478 10.7036 5.44513 11.1319 5.17257 11.1319C4.53009 11.1319 1.23982 8.7762 1.49292 8.50363C1.55133 8.44522 2.68053 8.48416 4.00442 8.60098L6.39912 8.79566L9.82566 6.80982C11.7142 5.73903 13.6027 4.62929 14.031 4.3762C16.6009 2.81867 18.0027 2.07885 18.7814 1.84522C19.677 1.61159 20.9425 1.67 21.585 2.02044ZM9.6115 4.23991C12.6292 4.3762 12.6487 4.39567 11.0717 5.31071C8.83274 6.61513 9.02743 6.55673 7.76195 6.12841C4.29646 4.90186 4.17965 4.86292 4.43274 4.55142C4.80265 4.1231 5.38673 3.92841 6.14602 4.02575C6.51593 4.06469 8.07345 4.16204 9.6115 4.23991Z" fill="#090E0D" stroke="#090E0D"/>
<path d="M17.7105 3.03278C17.5547 3.42216 17.9636 4.12305 18.3529 4.12305C18.5671 4.12305 18.6255 4.00623 18.5282 3.67526C18.4698 3.44163 18.4113 3.18853 18.4113 3.13013C18.4113 2.85756 17.8078 2.77968 17.7105 3.03278Z" fill="#090E0D"/>
<path d="M16.1727 3.92854C16.017 4.16217 16.5621 5.09668 16.8541 5.09668C17.2046 5.09668 17.263 4.66836 16.9709 4.22057C16.6205 3.69491 16.3674 3.61703 16.1727 3.92854Z" fill="#090E0D"/>
<path d="M14.7124 4.92151C14.7124 5.31089 15.1213 5.87549 15.3938 5.87549C15.7443 5.87549 15.7637 5.60292 15.4912 5.07726C15.277 4.68788 14.7124 4.57106 14.7124 4.92151Z" fill="#090E0D"/>
<path d="M13.2522 5.68058C13.1744 5.79739 13.2717 6.1089 13.4469 6.40093C13.8752 7.06288 14.3036 6.71244 13.9726 5.97261C13.739 5.46642 13.4664 5.3496 13.2522 5.68058Z" fill="#090E0D"/>
<path d="M11.6949 6.4593C11.5392 6.69293 12.1038 7.62744 12.3763 7.62744C12.6489 7.62744 12.61 6.7708 12.3374 6.49824C12.0454 6.2062 11.8507 6.2062 11.6949 6.4593Z" fill="#090E0D"/>
<path d="M10.2346 7.51084C10.2346 7.6666 10.4098 7.9781 10.6045 8.2312C10.9355 8.64005 10.9939 8.65952 11.1107 8.36748C11.1886 8.19226 11.1497 7.86129 11.0134 7.64713C10.7798 7.17987 10.2346 7.10199 10.2346 7.51084Z" fill="#090E0D"/>
<path d="M8.77427 8.21125C8.61852 8.44488 9.18312 9.37939 9.45568 9.37939C9.70878 9.37939 9.70878 8.8732 9.45568 8.38647C9.22206 7.97762 8.96896 7.89975 8.77427 8.21125Z" fill="#090E0D"/>
</svg>
