<svg width="31" height="30" viewBox="0 0 31 30" fill="none" xmlns="http://www.w3.org/2000/svg">
<g clip-path="url(#clip0_225_293)">
<path d="M14.4269 30C13.3425 30 12.2618 29.8887 11.203 29.6658C6.66474 28.7082 3.32766 26.4587 1.54594 23.1587C0.00519156 20.3078 -0.378171 16.748 0.370297 12.2861C1.4218 6.0164 4.71871 3.25833 7.30001 2.05192C10.3158 0.641338 13.3462 -0.553945 17.2638 0.270132C22.3095 1.33549 26.5885 4.28287 28.7098 8.15825C30.4149 11.2764 30.6302 14.8325 29.3341 18.448C27.5781 23.3332 25.2706 26.3288 21.8568 28.1662C19.6078 29.3727 17.0191 30 14.4269 30ZM14.7007 1.01996C12.1669 1.01996 10.0055 1.91087 7.71623 2.97993C4.3317 4.56498 2.13375 7.83902 1.35973 12.4568C0.651427 16.6848 0.998282 20.0257 2.42585 22.6687C4.06153 25.7015 7.16859 27.7765 11.4075 28.6673C14.7701 29.3763 18.4029 28.8642 21.3821 27.2642C24.5623 25.553 26.7236 22.728 28.3885 18.0992C29.586 14.7731 29.3926 11.5065 27.8335 8.65938C25.8511 5.04013 21.8239 2.27835 17.0593 1.27239C16.2305 1.09792 15.4492 1.01996 14.7007 1.01996Z" fill="#087A82"/>
<path d="M14.4641 28.649C13.4783 28.649 12.4925 28.5488 11.5286 28.3447C7.39927 27.476 4.36523 25.438 2.75512 22.4535C1.35675 19.8663 1.0099 16.6219 1.6963 12.5386C2.42287 8.20667 4.17538 5.05513 6.90272 3.16198C9.56435 1.3171 13.0694 0.782562 17.0381 1.62149C21.6493 2.59405 25.5559 5.28158 27.4875 8.80803C29.0281 11.6218 29.2217 14.8364 28.0461 18.1067C26.4396 22.576 24.3366 25.3155 21.2332 26.9823C19.185 28.0773 16.8227 28.649 14.4641 28.649ZM1.86061 12.5646C1.1815 16.6108 1.52105 19.818 2.90115 22.3718C4.48936 25.3118 7.48324 27.32 11.5615 28.1813C14.7927 28.8605 18.2868 28.3705 21.1492 26.83C24.2161 25.1818 26.2936 22.4722 27.8817 18.0437C29.0392 14.8216 28.853 11.6552 27.3341 8.88598C25.4245 5.40037 21.5618 2.74625 16.9979 1.78482C13.073 0.957031 9.61182 1.48043 6.99034 3.29933C4.30316 5.1628 2.57621 8.28092 1.86061 12.5646Z" fill="#087A82"/>
<path d="M12.8024 25.7388C12.054 25.7388 11.2945 25.6163 10.5169 25.3081C7.05201 23.9385 4.98185 22.1418 4.18227 19.8106C3.15998 16.8298 4.40863 12.9619 4.98916 11.4362C7.2017 5.64912 12.9193 2.88736 18.2827 5.00694C20.9298 6.05374 23.1459 8.17704 24.3654 10.8349C25.6141 13.5595 25.7346 16.5403 24.705 19.2353C23.4928 22.4053 20.4771 23.649 17.7496 24.5695C17.5964 24.6215 17.443 24.6735 17.2896 24.7255C15.7671 25.2413 14.303 25.7388 12.8024 25.7388ZM5.14616 11.4993C4.56928 13.0064 3.33523 16.8298 4.33927 19.755C5.1206 22.0341 7.16155 23.7973 10.5753 25.1486C12.8572 26.0506 14.9821 25.3268 17.2348 24.5621C17.3882 24.5101 17.5416 24.4581 17.6949 24.4061C20.3894 23.5005 23.3613 22.2718 24.5479 19.1721C26.6217 13.7563 23.7228 7.34182 18.2205 5.16656C12.9485 3.08039 7.32583 5.80502 5.14616 11.4993Z" fill="#087A82"/>
<path d="M13.3086 22.7322C12.7281 22.7322 12.1403 22.6318 11.5488 22.3795C9.10262 21.3327 7.65679 20.0075 7.12739 18.3222C6.4556 16.1729 7.41948 13.4334 7.8649 12.3569C9.559 8.2662 13.6957 6.40273 17.4854 8.02862C21.4359 9.7176 23.4112 14.4319 21.801 18.3222C20.8736 20.5642 18.6975 21.3957 16.7297 21.9972C16.6202 22.0305 16.5106 22.0638 16.4011 22.0973C15.3934 22.4128 14.3565 22.7322 13.3086 22.7322ZM8.01824 12.4237C7.58011 13.4853 6.63085 16.1766 7.28804 18.2738C7.79918 19.9072 9.2158 21.199 11.6145 22.2235C13.2137 22.9065 14.7399 22.4352 16.3573 21.934C16.4668 21.9005 16.5764 21.8672 16.6859 21.8338C18.6173 21.2435 20.7533 20.4307 21.6513 18.2553C23.225 14.4505 21.2899 9.84012 17.4234 8.18453C13.7176 6.59948 9.67584 8.4221 8.01824 12.4237Z" fill="#087A82"/>
<path d="M14.3757 17.6315C14.1895 17.6315 14.0033 17.6018 13.8134 17.5202C13.0467 17.1935 12.594 16.774 12.426 16.2395C12.2143 15.5602 12.5137 14.7065 12.6524 14.3687C12.9043 13.7599 13.3461 13.2847 13.8974 13.0286C14.4597 12.7651 15.095 12.7613 15.6791 13.0101C16.9168 13.5409 17.5375 15.022 17.0336 16.2433C16.7379 16.9523 16.0588 17.2158 15.4418 17.4015L15.3396 17.4348C15.0219 17.5313 14.7043 17.6315 14.3757 17.6315ZM12.8057 14.4355C12.6743 14.7547 12.3895 15.5639 12.583 16.1876C12.7327 16.6702 13.1562 17.0562 13.8755 17.3643C14.3465 17.5647 14.8029 17.4237 15.2885 17.2752L15.3907 17.2418C15.9712 17.0637 16.6102 16.8223 16.8767 16.1801C17.3477 15.0443 16.7671 13.6671 15.6134 13.1697C15.0694 12.9395 14.4852 12.9432 13.9668 13.1845C13.4556 13.4184 13.0431 13.8638 12.8057 14.4355Z" fill="#087A82"/>
<path d="M14.457 17.249C14.3 17.249 14.143 17.223 13.986 17.1525C13.347 16.8778 12.9673 16.5288 12.8249 16.0833C12.646 15.5154 12.898 14.8027 13.0148 14.5206C13.2266 14.012 13.5953 13.6148 14.0554 13.3995C14.5263 13.1805 15.0557 13.1768 15.545 13.3847C16.5819 13.8264 17.1003 15.0662 16.6768 16.087C16.4322 16.6846 15.8626 16.9 15.3478 17.0596L15.2638 17.0856C14.9973 17.1636 14.7308 17.249 14.457 17.249ZM14.8075 13.4032C14.5738 13.4032 14.3401 13.4552 14.1211 13.5554C13.7012 13.7522 13.3616 14.116 13.1681 14.5874C12.9418 15.1368 12.8724 15.675 12.9856 16.0314C13.1097 16.4286 13.4566 16.7441 14.0517 16.9965C14.4387 17.1636 14.8148 17.0448 15.2164 16.9223L15.3004 16.8963C15.7786 16.7515 16.3044 16.5511 16.5235 16.0239C16.9104 15.0885 16.4322 13.9526 15.4829 13.5443C15.2602 13.4478 15.0338 13.4032 14.8075 13.4032Z" fill="#087A82"/>
<path d="M14.3139 17.9282C14.1058 17.9282 13.894 17.891 13.6823 17.802C12.817 17.4309 12.3058 16.9594 12.116 16.358C11.875 15.5933 12.2182 14.6282 12.3752 14.2459C12.974 12.7945 14.4417 12.1374 15.7889 12.7128C16.4534 12.9949 16.9974 13.548 17.2895 14.231C17.5888 14.9289 17.5962 15.6861 17.3187 16.3617C16.9865 17.1635 16.2161 17.4569 15.5224 17.6684L15.4056 17.7055C15.0478 17.8169 14.6827 17.9282 14.3139 17.9282ZM12.5249 14.3127C12.3752 14.6765 12.0502 15.5971 12.273 16.3061C12.4446 16.8554 12.9265 17.2935 13.7443 17.6424C14.281 17.8725 14.8031 17.7129 15.3545 17.5422L15.4713 17.505C16.1285 17.3045 16.8587 17.0262 17.1618 16.2949C17.4246 15.6639 17.4137 14.9549 17.1324 14.2978C16.8587 13.6557 16.3439 13.136 15.7196 12.8687C14.4636 12.3304 13.0908 12.9541 12.5249 14.3127Z" fill="#087A82"/>
<path d="M14.2737 18.3665C14.0692 18.3665 13.8611 18.333 13.6493 18.2588C12.627 17.8838 12.0064 17.3716 11.7544 16.6923C11.4331 15.8237 11.769 14.6878 11.926 14.2386C12.2145 13.4257 12.7548 12.7761 13.4558 12.4049C14.1714 12.0262 14.9929 11.9743 15.7743 12.2564C16.5556 12.5422 17.2201 13.1473 17.5962 13.9157C17.9832 14.7026 18.038 15.575 17.7567 16.3731C17.4245 17.316 16.5519 17.7056 15.7633 17.9915L15.6355 18.0398C15.1937 18.2031 14.7446 18.3665 14.2737 18.3665ZM14.7665 12.2453C14.3394 12.2453 13.9195 12.3492 13.5325 12.5533C12.8716 12.906 12.3568 13.5222 12.083 14.2943C11.9297 14.7249 11.6084 15.8163 11.9078 16.6292C12.1414 17.2603 12.7292 17.7391 13.7041 18.0955C14.3467 18.3293 14.9418 18.1103 15.5734 17.8765L15.7012 17.8281C16.457 17.5535 17.2858 17.186 17.5962 16.3099C17.8627 15.5564 17.8079 14.7323 17.4428 13.9862C17.085 13.2586 16.457 12.6833 15.7122 12.4123C15.4055 12.3009 15.0842 12.2453 14.7665 12.2453Z" fill="#087A82"/>
<path d="M14.0775 18.6297C13.6758 18.6297 13.2779 18.5555 12.8982 18.3254C11.854 17.6944 11.2588 16.9704 11.1238 16.1686C10.9485 15.1367 11.5619 13.9414 11.8357 13.4774C12.3286 12.6385 13.0698 12.0297 13.9241 11.7699C14.8004 11.5026 15.7277 11.6251 16.531 12.1114C18.2397 13.1433 18.8494 15.4374 17.8672 17.1227C17.2977 18.0989 16.2462 18.3402 15.3042 18.4887L15.1509 18.5147C14.7931 18.574 14.4316 18.6297 14.0775 18.6297ZM14.8405 11.8033C14.5484 11.8033 14.2527 11.8478 13.9679 11.9332C13.1537 12.1819 12.4454 12.761 11.9744 13.5628C11.7116 14.0119 11.1201 15.1627 11.2844 16.139C11.4122 16.8887 11.9818 17.5719 12.9821 18.1769C13.6503 18.5815 14.3659 18.4664 15.1217 18.3439L15.2787 18.3179C16.1805 18.1769 17.1881 17.9467 17.7212 17.0335C18.6595 15.43 18.0754 13.2398 16.4433 12.2561C15.9395 11.9592 15.3918 11.8033 14.8405 11.8033Z" fill="#087A82"/>
<path d="M13.9633 19.2014C13.5617 19.2014 13.1637 19.1273 12.7731 18.9193C11.5098 18.2438 10.7978 17.4679 10.5897 16.5399C10.3268 15.3557 10.9621 13.9377 11.2505 13.3846C12.3422 11.2762 14.6387 10.4707 16.5957 11.5175C18.633 12.6051 19.4764 15.2184 18.4395 17.2266C17.8407 18.3884 16.6395 18.7301 15.5625 18.9601L15.3836 18.9973C14.9162 19.0974 14.4379 19.2014 13.9633 19.2014ZM11.3966 13.4626C11.1191 14.0009 10.4984 15.3743 10.7504 16.5028C10.9439 17.3788 11.6303 18.1213 12.8461 18.7709C13.6493 19.2014 14.4744 19.0233 15.3434 18.8339L15.5223 18.7968C16.5629 18.5741 17.7202 18.2438 18.2862 17.1488C19.2793 15.2221 18.4687 12.7165 16.5117 11.6697C14.646 10.6637 12.4445 11.4358 11.3966 13.4626Z" fill="#087A82"/>
<path d="M13.9401 19.7066C13.5933 19.7066 13.2428 19.6473 12.8923 19.4988C11.4428 18.8788 10.5848 18.0881 10.2708 17.0896C9.87284 15.8127 10.4424 14.1905 10.7053 13.5558C11.1836 12.405 12.016 11.503 13.0529 11.0204C14.1154 10.5267 15.3093 10.5156 16.4119 10.987C18.7523 11.9893 19.9242 14.7845 18.9714 17.0896C18.4199 18.4223 17.1312 18.916 15.9628 19.2723L15.773 19.3318C15.1742 19.5173 14.5645 19.7066 13.9401 19.7066ZM10.8586 13.6189C10.6031 14.2388 10.0481 15.8127 10.4278 17.0376C10.7272 17.988 11.5523 18.7415 12.9543 19.3428C13.8854 19.7401 14.7762 19.4653 15.7218 19.1721L15.9117 19.1128C17.0399 18.7675 18.2885 18.2923 18.8143 17.0265C19.7343 14.803 18.6025 12.1118 16.3462 11.1466C15.2837 10.6938 14.1409 10.7049 13.1223 11.1763C12.1219 11.6366 11.3187 12.5052 10.8586 13.6189Z" fill="#087A82"/>
<path d="M13.8571 20.0963C13.4811 20.0963 13.1014 20.0333 12.7143 19.87C11.1334 19.1943 10.1988 18.3368 9.85921 17.2455C9.42474 15.8535 10.0454 14.0866 10.3338 13.3924C11.4292 10.7494 14.1017 9.54672 16.5516 10.5935C17.7601 11.1095 18.7568 12.1192 19.2863 13.359C19.8302 14.6323 19.8485 16.0131 19.3374 17.2418C18.7349 18.6932 17.3293 19.2315 16.0624 19.6212L15.8506 19.688C15.2007 19.8922 14.5362 20.0963 13.8571 20.0963ZM10.4908 13.4592C10.2097 14.1385 9.60362 15.8572 10.0235 17.1935C10.3484 18.233 11.2503 19.057 12.7837 19.714C13.8024 20.1483 14.7735 19.8477 15.8068 19.5285L16.0185 19.4617C17.2526 19.083 18.6181 18.5633 19.1913 17.1825C19.6842 15.9946 19.666 14.6619 19.1402 13.4333C18.6291 12.2305 17.6615 11.2543 16.4932 10.7569C14.1273 9.73975 11.546 10.9053 10.4908 13.4592Z" fill="#087A82"/>
<path d="M13.8801 20.4527C13.5405 20.4527 13.1937 20.4007 12.8395 20.2708C11.1235 19.6435 10.0866 18.786 9.66309 17.6502C9.12274 16.1987 9.68865 14.287 9.95518 13.5334C10.9702 10.6677 13.7413 9.23858 16.403 10.2111C19.1704 11.2245 20.693 14.3835 19.729 17.1118C19.1704 18.6858 17.71 19.3353 16.381 19.8217L16.162 19.9033C15.4208 20.1707 14.6651 20.4527 13.8801 20.4527ZM14.7198 10.0738C12.719 10.0738 10.8898 11.399 10.1122 13.5891C9.85294 14.3241 9.30164 16.1875 9.82009 17.587C10.2254 18.6747 11.2294 19.4987 12.8979 20.1075C14.0042 20.5122 15.0265 20.1372 16.1072 19.7363L16.3263 19.6547C17.6189 19.1832 19.039 18.5522 19.5722 17.0487C20.5067 14.4095 19.0318 11.347 16.3482 10.367C15.8005 10.1703 15.2529 10.0738 14.7198 10.0738Z" fill="#087A82"/>
<path d="M13.66 21.5891C13.2437 21.5891 12.8202 21.5259 12.393 21.3664C10.2973 20.5979 9.02676 19.5511 8.51196 18.1666C7.85477 16.3959 8.54116 14.0573 8.86976 13.1367C9.45758 11.4737 10.5711 10.1374 12.0024 9.37639C13.4664 8.60057 15.1496 8.49292 16.7451 9.07571C20.1259 10.3155 21.9881 14.1761 20.8088 17.5057C20.1296 19.4286 18.3406 20.2231 16.7196 20.8169L16.4494 20.9172C15.5439 21.2476 14.6202 21.5891 13.66 21.5891ZM14.6859 8.87526C13.7841 8.87526 12.8969 9.09427 12.0791 9.52859C10.6844 10.271 9.59998 11.5702 9.02676 13.1961C8.70547 14.1018 8.03002 16.3922 8.66895 18.1109C9.1655 19.4472 10.4032 20.4606 12.4478 21.2104C13.8097 21.7079 15.062 21.2476 16.3873 20.7576L16.6575 20.6574C18.242 20.0782 19.9908 19.3024 20.648 17.4501C21.7982 14.2058 19.9836 10.4455 16.6867 9.23532C16.0295 8.99404 15.3541 8.87526 14.6859 8.87526Z" fill="#087A82"/>
<path d="M13.539 20.8982C12.8672 20.8982 12.2027 20.7757 11.5674 20.3895C9.78939 19.3168 8.81455 18.1327 8.58452 16.7778C8.29245 15.0442 9.32205 13.0397 9.78209 12.2565C10.6072 10.8459 11.8522 9.82878 13.2871 9.39077C14.7548 8.94532 16.3102 9.14947 17.6611 9.96613C19.0193 10.7865 20.0453 12.16 20.476 13.7302C20.9178 15.3412 20.7134 16.993 19.9065 18.374C18.9535 20.0035 17.1864 20.4082 15.6055 20.6568L15.3427 20.6977C14.7439 20.7978 14.1378 20.8982 13.539 20.8982ZM9.92447 12.3456C9.4754 13.1103 8.4677 15.0739 8.74883 16.7518C8.9679 18.0547 9.91716 19.198 11.6514 20.2485C12.8052 20.9463 14.0246 20.7497 15.3134 20.538L15.5763 20.4972C17.1207 20.2522 18.844 19.8625 19.7568 18.2923C20.5417 16.9485 20.7388 15.3486 20.3118 13.7784C19.8919 12.249 18.8952 10.9127 17.5734 10.1146C16.2627 9.32023 14.7548 9.12348 13.3309 9.5578C11.9399 9.98097 10.7277 10.9721 9.92447 12.3456Z" fill="#087A82"/>
<path d="M13.3507 21.8632C12.6789 21.8632 12.0108 21.7407 11.3572 21.3918C9.23595 20.2597 8.03474 18.953 7.68789 17.3977C7.24611 15.4117 8.31952 13.0248 8.80146 12.0931C10.6343 8.54809 14.4935 7.19689 17.7831 8.95269C21.2042 10.779 22.6243 15.1741 20.8829 18.5447C19.8787 20.4898 17.8597 21.0652 16.0452 21.4548L15.7458 21.518C14.9572 21.6888 14.1539 21.8632 13.3507 21.8632ZM8.95117 12.1711C8.47652 13.0879 7.42137 15.4302 7.8522 17.3605C8.1881 18.8638 9.36008 20.1333 11.4339 21.2397C12.8176 21.9783 14.2233 21.674 15.7093 21.351L16.0087 21.2878C17.7868 20.9092 19.7656 20.345 20.7332 18.4667C22.4309 15.1778 21.0434 10.8904 17.7028 9.10489C14.5044 7.38992 10.7402 8.71142 8.95117 12.1711Z" fill="#087A82"/>
<path d="M13.6974 23.4412C13.3432 23.4412 12.9818 23.4004 12.6057 23.3112C9.86014 22.6469 8.11492 21.5147 7.27153 19.8442C6.19446 17.7097 6.73481 14.6659 7.0196 13.4558C8.08936 8.86397 12.1055 6.17644 16.3627 7.20097C18.462 7.70581 20.3496 9.07184 21.54 10.939C22.7593 12.8581 23.1574 15.0891 22.6608 17.2272C22.073 19.7441 19.9334 21.0024 17.9727 21.9824C17.8633 22.0381 17.7537 22.0937 17.6442 22.1457C16.3444 22.8102 15.0958 23.4412 13.6974 23.4412ZM14.5627 7.15642C11.0978 7.15642 8.08207 9.64351 7.1839 13.4966C6.90643 14.6882 6.37337 17.6837 7.42487 19.7662C8.2427 21.3884 9.9514 22.4946 12.6495 23.1442C14.4495 23.5786 15.9684 22.8102 17.5785 21.9972C17.688 21.9416 17.7976 21.8859 17.907 21.8302C19.8312 20.8651 21.9342 19.6327 22.5037 17.1864C22.993 15.0965 22.6024 12.9101 21.4049 11.0318C20.2365 9.19806 18.3891 7.86171 16.3298 7.36431C15.731 7.22324 15.1432 7.15642 14.5627 7.15642Z" fill="#087A82"/>
<path d="M13.4418 25.2452C13.011 25.2452 12.5692 25.1968 12.1091 25.0855C8.74653 24.2763 6.6143 22.888 5.5847 20.85C4.26667 18.2405 4.93116 14.5173 5.27435 13.0362C6.5851 7.41983 11.4994 4.13095 16.7022 5.38563C22.1241 6.69228 25.6509 12.3086 24.4059 17.6465C23.6867 20.7238 21.0688 22.2607 18.6737 23.4633C18.5386 23.5302 18.4072 23.597 18.2721 23.6675C16.6766 24.473 15.1468 25.2452 13.4418 25.2452ZM5.43866 13.0733C5.09912 14.5359 4.44193 18.2108 5.7344 20.7722C6.73844 22.7655 8.8378 24.1242 12.1457 24.9222C14.3582 25.4567 16.2239 24.5138 18.1955 23.5153C18.3306 23.4485 18.462 23.3817 18.5971 23.3112C20.9594 22.127 23.5407 20.6125 24.2417 17.6095C25.4647 12.3606 21.9962 6.83705 16.662 5.55268C11.5542 4.32028 6.72748 7.55347 5.43866 13.0733Z" fill="#087A82"/>
<path d="M12.9486 24.2127C12.1965 24.2127 11.4407 24.079 10.674 23.7263C7.75316 22.3863 6.04811 20.7418 5.46395 18.7002C4.71548 16.0869 5.96414 12.8129 6.53371 11.5248C7.56331 9.20477 9.30486 7.41927 11.4407 6.49126C13.6241 5.54467 16.0484 5.58179 18.2682 6.60261C22.9817 8.76302 25.2234 14.5093 23.1644 19.153C21.9777 21.8295 19.327 22.7612 16.9355 23.4257C16.8005 23.4628 16.6691 23.4998 16.534 23.537C15.3145 23.8785 14.1316 24.2127 12.9486 24.2127ZM14.7084 5.97527C13.6168 5.97527 12.5361 6.19799 11.5065 6.64344C9.41076 7.55289 7.6984 9.30871 6.68705 11.5916C6.12479 12.8611 4.89438 16.0906 5.62458 18.6482C6.19415 20.6417 7.87 22.249 10.7434 23.5667C12.6602 24.4465 14.5222 23.923 16.4902 23.3663C16.6253 23.3292 16.7567 23.292 16.8918 23.2548C19.2467 22.6015 21.8572 21.6847 23.0145 19.0752C24.0041 16.8478 24.0333 14.32 23.095 11.9591C22.1785 9.65392 20.3968 7.75706 18.2025 6.75109C17.0706 6.23512 15.8841 5.97527 14.7084 5.97527Z" fill="#087A82"/>
<path d="M13.237 26.6779C12.7441 26.6779 12.2366 26.6222 11.7145 26.4961C7.8663 25.5681 5.42373 23.9831 4.24809 21.6481C3.74789 20.6532 2.70733 17.7876 3.89393 12.702C5.39451 6.27275 11.0172 2.50872 16.9758 3.94528C19.9148 4.6543 22.5581 6.5623 24.2267 9.1793C25.9354 11.8631 26.4941 14.9887 25.7967 17.9806C24.9752 21.4996 21.9777 23.2629 19.2321 24.6362C19.0788 24.7142 18.9254 24.7922 18.772 24.8664C16.9392 25.7944 15.1903 26.6779 13.237 26.6779ZM4.05458 12.7392C2.88258 17.7691 3.90124 20.5902 4.39412 21.5702C5.54787 23.8567 7.95392 25.4159 11.751 26.3327C14.2885 26.9452 16.428 25.8651 18.6954 24.7179C18.8486 24.6401 19.002 24.5621 19.1554 24.4879C21.8681 23.1292 24.8255 21.3919 25.6287 17.9434C27.0345 11.9225 23.0511 5.58602 16.9355 4.11234C11.0719 2.69433 5.53326 6.40638 4.05458 12.7392Z" fill="#087A82"/>
<path d="M13.4813 27.1864C12.9702 27.1864 12.4517 27.1346 11.9223 27.0231C7.8952 26.1731 5.31026 24.5992 4.01778 22.2049C3.46647 21.1841 2.30178 18.2404 3.38979 12.9136C4.7626 6.18366 10.4984 2.10409 16.7344 3.41817C19.8122 4.06777 22.6163 5.97206 24.4236 8.64474C26.2784 11.3842 26.9502 14.6174 26.3112 17.7467C25.5189 21.6369 22.5104 23.6971 19.9802 25.0594C17.9503 26.1507 15.7998 27.1864 13.4813 27.1864ZM14.416 3.34764C9.20595 3.34764 4.73704 7.15249 3.55409 12.9544C3.19628 14.7102 2.53909 19.1164 4.16382 22.1306C5.43074 24.4766 7.97919 26.0246 11.9552 26.8636C12.47 26.9712 12.9775 27.0194 13.4777 27.0194C15.7633 27.0194 17.8918 25.9949 19.9036 24.9147C22.4009 23.5709 25.3693 21.5404 26.1505 17.7207C27.4357 11.4139 23.1092 4.94382 16.7052 3.59264C15.9275 3.42559 15.1645 3.34764 14.416 3.34764Z" fill="#087A82"/>
<path d="M13.4627 27.8658C12.8018 27.8658 12.2432 27.7841 11.754 27.6838C7.71224 26.8301 5.06887 25.1596 3.67417 22.5723C2.36344 20.1483 2.00928 16.3955 2.74314 12.7836C4.19261 5.67877 10.2534 1.36536 16.8398 2.75367C20.0894 3.4404 23.0504 5.45234 24.9599 8.2735C26.9204 11.1689 27.6251 14.5803 26.9533 17.8878C26.2815 21.1766 24.2151 23.6488 20.4471 25.6756C17.2379 27.4018 15.0545 27.8658 13.4627 27.8658ZM2.90744 12.8171C2.17722 16.3918 2.52773 20.0965 3.8202 22.4906C5.193 25.0298 7.79986 26.6741 11.7905 27.5168C14.8975 28.1701 18.0045 26.7966 20.3705 25.5271C24.0909 23.5263 26.1319 21.0875 26.7927 17.8543C27.4571 14.5951 26.7599 11.2246 24.8248 8.37002C22.9372 5.58225 20.0163 3.5963 16.807 2.9207C10.3118 1.55096 4.33865 5.80497 2.90744 12.8171Z" fill="#087A82"/>
<path d="M13.8527 28.3478C12.9655 28.3478 12.1075 28.2513 11.286 28.0508C7.24431 27.0747 4.59729 25.2445 3.18799 22.453C1.85899 19.8175 1.53405 15.8345 2.3592 12.3006C3.22084 8.60339 5.41148 5.437 8.36154 3.6181C11.0706 1.95139 14.1558 1.49851 17.2884 2.30774C21.2753 3.33599 24.3167 5.4667 26.0838 8.46234C27.7341 11.2649 28.1868 14.7691 27.3545 18.329C26.5074 21.9557 24.1342 24.8362 20.4904 26.6625C18.2778 27.7762 15.9923 28.3478 13.8527 28.3478ZM14.2872 2.08874C12.239 2.08874 10.2564 2.65297 8.44918 3.76659C5.53563 5.56322 3.37418 8.68877 2.51983 12.3414C1.70564 15.8345 2.02329 19.773 3.33402 22.3752C4.71778 25.1183 7.3283 26.9223 11.3226 27.8838C14.0901 28.552 17.3176 28.062 20.4173 26.5103C24.0174 24.7063 26.3614 21.8628 27.1937 18.2882C28.0262 14.7209 27.5918 11.354 25.9413 8.5477C24.1999 5.5892 21.1913 3.48817 17.2482 2.47107C16.2551 2.21865 15.2657 2.08874 14.2872 2.08874Z" fill="#087A82"/>
</g>
<defs>
<clipPath id="clip0_225_293">
<rect width="30.1695" height="30" fill="white"/>
</clipPath>
</defs>
</svg>
