<svg width="314" height="468" viewBox="0 0 314 468" fill="none" xmlns="http://www.w3.org/2000/svg">
<g clip-path="url(#clip0_151_451)">
<path d="M72.643 0.16172C90.7838 0.161722 108.864 1.89926 126.578 5.37246C202.501 20.3067 258.329 55.3876 288.137 106.849C313.913 151.308 320.327 206.823 307.805 276.404C290.214 374.177 235.058 417.188 191.873 436.001C141.42 457.999 90.7227 476.639 25.1829 463.787C-59.2313 447.174 -130.817 401.21 -166.306 340.775C-194.831 292.149 -198.434 236.693 -176.751 180.31C-147.37 104.129 -108.768 57.414 -51.6557 28.7597C-14.0309 9.9452 29.2756 0.161717 72.643 0.16172ZM68.0625 452.094C110.453 452.094 146.612 438.201 184.91 421.529C241.532 396.811 278.303 345.754 291.252 273.741C303.102 207.807 297.299 155.707 273.416 114.492C246.052 67.1975 194.072 34.8374 123.157 20.9446C66.9022 9.88705 6.12569 17.8766 -43.7161 42.8251C-96.917 69.5129 -133.077 113.565 -160.931 185.751C-180.965 237.619 -177.728 288.56 -151.646 332.96C-118.48 389.401 -51.107 432.47 28.6029 448.158C42.47 450.878 55.5406 452.094 68.0625 452.094Z" fill="white"/>
<path d="M72.0296 21.2336C88.5222 21.2336 105.013 22.7966 121.14 25.9808C190.222 39.5265 240.98 71.3068 267.917 117.849C291.311 158.197 297.113 208.792 285.63 272.467C273.475 340.023 244.156 389.17 198.529 418.693C154.001 447.463 95.3623 455.799 28.9669 442.716C-48.1784 427.55 -113.533 385.639 -145.846 330.645C-171.621 286.766 -174.859 236.635 -155.192 185.635C-128.315 115.939 -93.1329 73.217 -41.2143 47.2253C-6.94678 30.1483 32.5719 21.2336 72.0296 21.2336ZM282.882 272.062C294.243 208.964 288.562 158.949 265.473 119.123C238.903 73.2752 188.817 41.9583 120.589 28.5271C66.5327 17.933 8.07875 25.5755 -39.8101 49.5989C-91.1171 75.3016 -125.872 117.56 -152.442 186.62C-171.806 236.866 -168.691 286.245 -143.281 329.429C-111.335 383.786 -46.7112 425.176 29.6395 440.169C95.3014 453.078 153.207 444.916 197.063 416.551C242.018 387.491 270.91 338.865 282.882 272.062Z" fill="white"/>
<path d="M99.8266 66.6177C112.349 66.6177 125.053 68.5279 138.063 73.3333C196.029 94.6941 230.662 122.712 244.039 159.065C261.141 205.549 240.252 265.869 230.54 289.661C193.525 379.908 97.8717 422.977 8.14353 389.922C-36.1404 373.598 -73.2164 340.486 -93.6169 299.038C-114.507 256.549 -116.523 210.064 -99.2966 168.038C-79.0181 118.601 -28.5647 99.2087 17.0625 84.8525C19.6271 84.0419 22.1935 83.2313 24.7581 82.4207C50.2287 74.3747 74.7219 66.6177 99.8266 66.6177ZM227.913 288.676C237.564 265.173 258.21 205.549 241.412 159.934C228.341 124.39 194.197 96.8932 137.086 75.8214C98.9101 61.756 63.3622 73.0443 25.6746 84.9688C23.1081 85.7794 20.5435 86.5899 17.9789 87.4005C-27.0995 101.524 -76.8194 120.686 -96.6711 169.022C-131.365 253.481 -82.8669 353.511 9.18193 387.433C97.3839 419.966 191.448 377.477 227.913 288.676Z" fill="white"/>
<path d="M91.3343 113.507C101.046 113.507 110.879 115.07 120.776 119.006C161.699 135.331 185.887 155.998 194.744 182.278C205.983 215.794 189.857 258.516 182.406 275.304C154.064 339.097 84.8599 368.156 21.4578 342.802C-44.6327 316.462 -77.677 242.944 -50.7412 182.278C-35.226 147.314 1.17741 134.346 34.1017 124.97C35.9327 124.448 37.7657 123.926 39.5986 123.407C56.457 118.485 73.8033 113.507 91.3343 113.507ZM179.84 274.263C187.17 257.705 203.051 215.738 192.056 183.031C183.505 157.561 159.806 137.416 119.676 121.438C92.9214 110.786 67.3899 118.138 40.3303 125.953C38.4992 126.474 36.6663 126.994 34.8333 127.516C2.52258 136.72 -33.2102 149.398 -48.2357 183.32C-74.5618 242.655 -42.1901 314.552 22.4962 340.37C84.4922 365.088 152.109 336.665 179.84 274.263Z" fill="white"/>
<path d="M73.5022 193.045C76.6174 193.045 79.7327 193.508 82.9089 194.783C95.7356 199.875 103.309 206.418 106.12 214.753C109.662 225.347 104.653 238.66 102.332 243.929C98.1173 253.422 90.7265 260.831 81.5027 264.826C72.0961 268.936 61.4681 268.994 51.6956 265.115C30.9883 256.838 20.6062 233.74 29.0354 214.695C33.9816 203.639 45.3432 199.528 55.6663 196.635L57.3754 196.113C62.6894 194.608 68.0053 193.045 73.5022 193.045ZM99.7673 242.887C101.966 237.908 106.729 225.289 103.492 215.564C100.989 208.037 93.9027 202.018 81.8705 197.212C73.99 194.086 66.3553 196.287 58.2309 198.603L56.5218 199.123C46.8084 201.902 36.1194 205.666 31.6609 215.68C23.7824 233.393 33.4939 254.87 52.795 262.627C61.8968 266.215 71.6693 266.158 80.3424 262.394C88.8936 258.749 95.7966 251.802 99.7673 242.887Z" fill="white"/>
<path d="M72.155 199.008C74.7806 199.008 77.408 199.413 80.0336 200.513C90.7226 204.797 97.075 210.238 99.4585 217.185C102.452 226.041 98.2372 237.155 96.2823 241.555C92.7384 249.487 86.5689 255.681 78.8732 259.038C70.9946 262.453 62.1367 262.511 53.9533 259.268C36.6052 252.38 27.9321 233.046 35.018 217.127C39.1107 207.807 48.6393 204.45 57.2514 201.96L58.6557 201.554C63.1142 200.339 67.5746 199.008 72.155 199.008ZM66.2904 258.979C70.2001 258.979 74.1099 258.169 77.7738 256.606C84.7988 253.538 90.4787 247.865 93.7158 240.514C97.5036 231.946 98.664 223.551 96.7701 217.995C94.6933 211.801 88.8915 206.88 78.9342 202.943C72.4599 200.339 66.1684 202.191 59.4502 204.102L58.046 204.506C50.0435 206.765 41.2485 209.891 37.5826 218.11C31.1083 232.699 39.1107 250.412 54.9917 256.78C58.7166 258.285 62.5045 258.979 66.2904 258.979Z" fill="white"/>
<path d="M74.5387 188.414C78.0198 188.414 81.5637 188.994 85.1057 190.382C99.5825 196.171 108.134 203.523 111.31 212.901C115.342 224.825 109.599 239.876 106.973 245.839C96.955 268.474 72.4009 278.719 49.8626 269.746C38.745 265.348 29.6451 256.722 24.7579 246.07C19.7487 235.189 19.6268 223.379 24.2682 212.843C29.828 200.339 42.7157 195.766 54.3211 192.467L56.276 191.887C62.2607 190.152 68.3692 188.414 74.5387 188.414ZM104.468 244.798C106.973 239.123 112.409 224.767 108.682 213.712C105.813 205.144 97.7496 198.314 84.0673 192.872C75.0874 189.283 66.3534 191.771 57.1296 194.435L55.1766 195.013C44.1809 198.139 31.9658 202.481 26.8957 213.884C22.4982 223.726 22.6811 234.783 27.3834 245.028C31.9658 255.043 40.5779 263.147 51.023 267.316C72.0351 275.709 95.0002 265.984 104.468 244.798Z" fill="white"/>
<path d="M75.2056 181.584C78.6276 181.584 82.1087 182.104 85.6507 183.261C102.753 189.108 113.137 197.098 117.352 207.69C122.727 221.238 117.108 238.951 114.48 245.955C109.656 258.632 100.615 268.763 88.8879 274.551C76.9166 280.456 63.1734 281.267 50.1027 276.867C37.0302 272.41 25.9145 262.974 19.623 250.992C13.1487 238.718 12.2322 225.116 16.9346 212.67C22.4925 197.967 37.0912 191.887 50.2857 187.431L52.4235 186.678C59.8143 184.13 67.327 181.584 75.2056 181.584ZM66.9593 277.041C74.1062 277.041 81.1312 275.42 87.6056 272.236C98.6604 266.736 107.274 257.127 111.855 245.087C114.419 238.371 119.794 221.352 114.787 208.675C110.877 198.834 101.044 191.367 84.7342 185.81C73.9843 182.162 64.0289 185.577 53.4619 189.225L51.3241 189.977C38.6802 194.261 24.8151 199.991 19.623 213.653C15.1626 225.405 16.0791 238.256 22.1876 249.892C28.1742 261.237 38.6802 270.21 51.1412 274.435C56.2703 276.173 61.6453 277.041 66.9593 277.041Z" fill="white"/>
<path d="M78.5056 177.473C85.2239 177.473 91.883 178.631 98.2354 182.22C115.704 192.062 125.66 203.35 127.92 215.852C130.852 231.946 120.591 250.586 116.01 257.822C107.764 270.906 95.3641 280.398 81.0721 284.451C66.4124 288.618 50.8972 286.708 37.4589 279.124C8.87305 263.032 -1.32622 227.257 15.1035 200.976C24.6321 185.751 42.2241 181.989 57.9832 179.674L60.5478 179.269C66.5344 178.342 72.58 177.473 78.5056 177.473ZM65.7398 283.93C70.627 283.93 75.5733 283.235 80.3386 281.903C93.9598 278.025 105.809 268.994 113.688 256.491C118.087 249.487 127.982 231.541 125.233 216.316C123.094 204.622 113.566 193.972 96.8293 184.536C85.6525 178.225 73.6813 180.021 61.0375 181.931L58.41 182.336C43.3235 184.536 26.4651 188.125 17.5462 202.365C1.84997 227.373 11.6225 261.527 38.926 276.867C47.3552 281.498 56.5161 283.93 65.7398 283.93Z" fill="white"/>
<path d="M80.4016 168.558C87.1198 168.558 93.7771 169.716 100.314 172.958C121.448 183.494 133.358 195.591 136.84 210.064C141.238 228.531 130.61 250.644 125.784 259.268C107.52 292.149 69.101 304.711 36.3615 288.387C2.27881 271.425 -11.8302 230.672 5.51599 199.355C15.5324 181.235 35.628 175.91 53.6487 172.32L56.6401 171.742C64.4596 170.179 72.4601 168.558 80.4016 168.558ZM123.34 258.053C127.983 249.659 138.367 228.24 134.152 210.644C130.915 196.982 119.432 185.404 99.091 175.274C85.6546 168.558 71.8504 171.337 57.3127 174.289L54.3194 174.868C36.9122 178.342 17.5482 183.494 8.08059 200.571C-8.53207 230.614 5.02631 269.688 37.7658 286.013C68.979 301.701 105.811 289.66 123.34 258.053Z" fill="white"/>
<path d="M80.7674 160.687C86.571 160.687 92.4338 161.612 98.2984 163.927C122.548 173.594 136.902 185.924 142.155 201.496C148.812 221.41 139.284 246.708 134.886 256.606C126.884 274.552 112.958 288.618 95.61 296.144C77.8369 303.843 57.8633 304.016 39.4158 296.665C0.262931 281.034 -19.343 237.446 -3.40102 201.496C5.82082 180.715 27.3836 173.016 46.9285 167.459L50.1047 166.532C60.123 163.638 70.3223 160.687 80.7674 160.687ZM132.32 255.623C136.596 245.955 145.88 221.41 139.528 202.307C134.519 187.487 120.715 175.737 97.26 166.359C81.6838 160.165 66.7803 164.449 50.9602 169.022L47.784 169.949C28.9097 175.332 8.0215 182.742 -0.77546 202.481C-16.1668 237.155 2.76846 279.124 40.5151 294.176C58.2901 301.238 77.4082 301.064 94.4496 293.712C111.186 286.534 124.624 272.988 132.32 255.623Z" fill="white"/>
<path d="M82.1716 154.607C88.463 154.607 94.8154 155.592 101.29 158.139C127.738 168.674 143.375 182.046 149.055 199.066C156.324 220.774 145.94 248.329 141.115 259.154C122.792 300.369 78.0789 319.125 37.095 302.801C16.8755 294.754 0.201922 279.008 -8.656 259.674C-17.7559 239.818 -18.0627 218.284 -9.51149 199.123C0.567759 176.49 24.0835 168.095 45.2785 162.017L48.8224 160.976C59.6943 157.791 70.81 154.607 82.1716 154.607ZM138.489 258.111C143.192 247.518 153.331 220.716 146.307 199.875C140.871 183.667 125.784 170.815 100.129 160.57C83.088 153.797 66.8412 158.486 49.554 163.464L46.012 164.507C25.3658 170.41 2.52265 178.516 -7.06693 200.049C-15.3132 218.573 -15.0084 239.356 -6.21144 258.516C2.33973 277.272 18.5256 292.497 38.0706 300.254C77.6521 316.115 120.837 297.938 138.489 258.111Z" fill="white"/>
<path d="M81.8037 149.051C87.4835 149.051 93.2872 149.86 99.2128 151.886C127.92 161.67 145.267 175.041 152.352 192.756C161.392 215.389 151.925 245.203 147.466 256.953C130.485 301.643 84.1244 323.93 39.5966 308.763C-6.70314 292.96 -32.1737 243.698 -16.0469 201.149C-6.70311 176.606 17.7291 166.475 39.9625 158.891L43.6283 157.617C56.0283 153.449 68.6721 149.051 81.8037 149.051ZM67.7556 310.905C101.229 310.905 131.829 290.239 144.84 256.086C149.176 244.623 158.399 215.564 149.726 193.739C142.946 176.779 126.149 163.927 98.2354 154.435C79.7269 148.124 62.6246 153.971 44.5448 160.223L40.8789 161.495C19.2571 168.847 -4.50434 178.689 -13.4213 202.134C-29.0585 243.293 -4.38052 291.05 40.5131 306.332C49.6759 309.4 58.8368 310.905 67.7556 310.905Z" fill="white"/>
<path d="M85.4717 131.336C92.4357 131.336 99.5217 132.321 106.667 134.809C141.728 146.792 162.984 163.117 171.596 184.71C182.591 212.321 171.108 248.791 165.611 263.147C155.777 289.081 137.147 309.921 113.204 321.788C88.7089 333.887 60.5518 335.565 33.8579 326.477C-22.7021 307.142 -53.8544 246.939 -34.1246 195.013C-22.763 165.027 7.16605 152.639 34.2867 143.377L38.8061 141.814C53.9536 136.661 69.4078 131.336 85.4717 131.336ZM68.3084 329.603C83.3949 329.603 98.2375 326.187 111.92 319.415C135.253 307.837 153.394 287.576 162.984 262.222C168.359 248.096 179.659 212.379 168.97 185.577C160.663 164.738 139.957 148.935 105.752 137.241C82.9681 129.484 62.017 136.661 39.8445 144.304L35.3251 145.867C8.81609 154.896 -20.4423 166.995 -31.4361 195.882C-50.6782 246.475 -20.3204 305.116 34.8354 323.988C45.8311 327.75 57.1317 329.603 68.3084 329.603Z" fill="white"/>
<path d="M87.4855 142.103C98.7251 142.103 109.841 144.015 120.469 150.035C150.216 166.764 166.524 185.23 170.372 206.36C175.259 233.393 158.034 264.654 150.338 276.867C136.533 298.864 115.705 314.726 91.7001 321.557C67.146 328.503 41.1247 325.319 18.5255 312.584C-4.19759 299.791 -21.3609 278.372 -28.5688 253.885C-35.9596 228.762 -32.5395 203.001 -19.0402 181.468C-3.0982 156.056 26.4651 149.746 52.9131 145.867L57.3106 145.229C67.3289 143.666 77.4672 142.103 87.4855 142.103ZM147.956 275.478C155.469 263.552 172.327 232.93 167.624 206.765C163.959 186.446 148.078 168.616 119.065 152.234C99.7635 141.351 79.3611 144.419 57.8003 147.719L53.4028 148.355C27.5645 152.175 -1.26526 158.255 -16.5347 182.742C-29.6682 203.697 -32.9663 228.646 -25.8194 253.133C-18.7963 276.983 -2.12075 297.823 19.9907 310.269C41.9193 322.657 67.146 325.725 90.9665 318.952C114.238 312.353 134.518 296.896 147.956 275.478Z" fill="white"/>
<path d="M90.6616 127.052C101.901 127.052 113.078 128.963 124.012 134.404C159.5 152.061 179.595 172.437 185.398 196.693C192.789 227.662 174.831 264.884 166.768 279.413C136.106 334.697 71.5434 355.768 16.5095 328.387C-40.7231 299.906 -64.4846 231.366 -35.3481 178.805C-18.5506 148.471 15.2273 139.499 45.5831 133.421L50.5923 132.436C63.7868 129.773 77.2232 127.052 90.6616 127.052ZM164.264 278.199C172.205 263.899 189.857 227.374 182.649 197.271C177.03 173.827 157.423 154.029 122.728 136.778C99.5786 125.259 76.0629 130.006 51.2039 135.042L46.1947 136.025C16.4486 141.93 -16.6586 150.729 -32.8445 180.021C-61.2474 231.308 -38.0365 298.17 17.8528 326.014C71.3604 352.758 134.334 332.15 164.264 278.199Z" fill="white"/>
<path d="M84.86 102.451C90.7837 102.451 96.8312 103.087 103.123 104.478C149.055 114.839 178.252 132.494 192.362 158.544C210.381 191.829 201.341 239.298 196.577 258.169C178.68 329.777 111.491 371.688 40.2712 355.711C5.14815 347.838 -26.4309 326.535 -46.3436 297.417C-66.7441 267.489 -73.4014 232.699 -65.0941 199.355C-55.2606 160.107 -19.4669 140.484 13.3335 125.2C15.1664 124.332 16.9975 123.465 18.8304 122.654C40.5761 112.291 61.4662 102.451 84.86 102.451ZM70.3832 356.405C128.349 356.405 178.802 317.62 193.828 257.533C198.47 238.951 207.388 192.234 189.797 159.76C176.114 134.462 147.528 117.213 102.389 107.082C72.2771 100.308 46.8675 112.291 19.9298 124.97C18.0969 125.836 16.2658 126.705 14.4329 127.574C-17.7559 142.625 -52.9399 161.844 -62.4685 199.991C-70.652 232.582 -64.1167 266.678 -44.082 295.97C-24.537 324.567 6.36948 345.407 40.8199 353.164C50.8363 355.364 60.6717 356.405 70.3832 356.405Z" fill="white"/>
<path d="M89.1374 74.3165C96.3433 74.3165 103.734 75.069 111.432 76.8065C167.687 89.4252 203.358 111.075 220.583 142.855C242.633 183.552 231.516 241.613 225.775 264.71C203.847 352.295 121.631 403.584 34.5913 384.018C-56.1144 363.641 -115.119 276.056 -94.2898 192.814C-82.2575 144.824 -38.4614 120.858 1.60793 102.104C3.86766 101.061 6.06643 100.019 8.32616 98.9197C35.0181 86.3573 60.6125 74.3165 89.1374 74.3165ZM223.026 264.132C228.707 241.324 239.701 184.014 218.079 144.071C201.281 112.985 166.16 91.7989 110.82 79.3528C73.8051 71.0178 42.5918 85.7212 9.60847 101.293C7.34874 102.335 5.14997 103.376 2.89024 104.476C-36.6284 122.943 -79.813 146.561 -91.5403 193.392C-112.004 275.246 -53.9766 361.383 35.2638 381.413C120.715 400.632 201.464 350.211 223.026 264.132Z" fill="white"/>
<path d="M97.3798 90.4103C109.963 90.4103 122.607 92.4931 135.433 97.9928C184.297 118.89 212.822 144.535 222.595 176.373C235.117 217.127 214.227 268.183 204.698 288.271C187.474 324.451 158.338 352.295 122.605 366.767C86.0793 381.528 45.5222 380.95 8.38332 365.03C-70.4711 331.34 -107.976 241.73 -73.5253 169.31C-53.6736 127.574 -9.32869 113.043 30.6796 102.682C32.9394 102.104 35.1381 101.524 37.3979 100.946C57.7983 95.6192 77.5891 90.4103 97.3798 90.4103ZM67.9385 374.814C86.2012 374.814 104.281 371.34 121.505 364.394C156.567 350.211 185.214 322.83 202.133 287.229C211.539 267.431 232.124 217.068 219.908 177.184C210.379 146.098 182.343 121.033 134.272 100.483C102.204 86.7626 71.0538 94.9249 38.1314 103.609C35.8698 104.187 33.671 104.767 31.4113 105.344C-7.98544 115.533 -51.6577 129.831 -71.0217 170.526C-87.5734 205.26 -88.0631 244.681 -72.365 281.498C-57.0327 317.447 -27.2256 347.027 9.48271 362.715C28.418 370.762 48.2697 374.814 67.9385 374.814Z" fill="white"/>
<path d="M92.5597 51.9725C100.806 51.9725 109.296 52.8413 118.03 54.8096C182.409 69.2804 223.273 93.9981 242.941 130.411C251.309 145.925 268.717 190.613 248.866 269.921C223.761 370.183 129.696 428.881 30.013 406.478C-19.1581 395.422 -63.381 365.667 -91.2942 324.856C-119.88 283.003 -129.226 234.262 -117.559 187.603C-103.816 132.727 -53.6695 105.23 -7.73554 83.8111C-5.17095 82.5952 -2.60446 81.3793 -0.0398691 80.2215C30.6228 65.749 59.8812 51.9725 92.5597 51.9725ZM246.178 269.341C265.785 190.904 248.743 146.908 240.497 131.625C221.196 95.9664 180.943 71.654 117.419 57.3559C74.9677 47.8051 39.1739 64.6494 1.24242 82.537C-1.32217 83.7529 -3.88676 84.9688 -6.45325 86.1265C-51.8365 107.313 -101.313 134.404 -114.749 188.183C-138.267 282.078 -71.6273 380.892 30.6837 403.873C128.78 425.987 221.44 368.099 246.178 269.341Z" fill="white"/>
<path d="M88.4647 44.0411C97.0159 44.0411 105.689 44.8517 114.545 46.5892C181.918 59.8441 225.163 84.3891 246.786 121.727C256.009 137.647 275.494 183.552 257.292 266.62C234.325 371.572 138.367 435.191 34.0406 414.698C-17.4512 404.568 -64.3607 374.871 -94.5965 333.192C-125.625 290.471 -136.865 240.05 -126.174 191.251C-112.92 130.584 -62.5887 98.4563 -20.2597 77.2119C13.7011 60.193 49.6777 44.0411 88.4647 44.0411ZM72.8276 415.798C159.99 415.798 234.753 356.463 254.543 265.984C260.529 238.604 271.524 169.89 244.343 122.885C223.147 86.2993 180.513 62.1614 113.996 49.0773C105.384 47.3998 96.894 46.6455 88.5257 46.6455C50.2874 46.6455 14.6785 62.623 -18.9774 79.4692C-60.7577 100.425 -110.417 132.089 -123.487 191.656C-144.987 290.008 -72.607 390.906 34.5302 411.978C47.5399 414.583 60.3057 415.798 72.8276 415.798Z" fill="white"/>
<path d="M88.7699 33.4488C99.8266 33.4488 109.172 34.7211 117.356 36.2841C184.973 49.5989 229.196 75.6488 252.529 115.997C274.457 153.797 280.381 212.321 268.104 268.647C243.855 379.445 142.461 446.71 32.2708 425.06C-22.0923 414.351 -71.6293 382.976 -103.574 338.981C-136.375 293.828 -148.163 240.628 -136.923 189.05C-125.686 137.763 -91.1132 99.2087 -28.0769 67.601C25.6136 40.6842 62.139 33.4488 88.7699 33.4488ZM265.355 268.127C277.572 212.379 271.708 154.607 250.085 117.269C227.119 77.6753 183.507 52.0307 116.746 38.8885C64.7665 28.7016 12.785 50.1187 -26.7947 69.9165C-89.0364 101.119 -123.18 139.151 -134.237 189.572C-145.353 240.397 -133.686 292.96 -101.314 337.476C-69.7353 380.95 -20.8691 411.92 32.8196 422.455C141.483 443.816 241.412 377.476 265.355 268.127Z" fill="white"/>
<path d="M82.2307 25.9227C97.0733 25.9227 111.428 27.4276 125.171 30.5537C192.788 45.7787 237.071 74.3167 260.648 117.849C282.882 158.949 288.318 221.063 274.514 276.173C260.099 333.829 223.45 383.208 174.097 411.572C128.775 437.564 77.1606 444.627 24.7542 432.007C-41.946 415.972 -92.8282 382.744 -122.391 336.029C-150 292.323 -157.573 237.677 -143.647 182.162C-129.475 125.606 -89.7739 80.6851 -28.8144 52.2034C8.20064 34.8374 46.437 25.9227 82.2307 25.9227ZM74.9618 435.422C109.229 435.422 142.395 426.623 172.631 409.257C221.373 381.239 257.533 332.498 271.826 275.537C285.447 221.063 280.133 159.643 258.205 119.065C235.055 76.285 191.383 48.1523 124.56 33.1581C78.26 22.7385 24.2646 30.3792 -27.5931 54.5771C-87.819 82.7116 -127.033 127.052 -140.959 182.8C-154.885 238.429 -147.616 290.934 -120.008 334.697C-90.8733 380.834 -40.5418 413.599 25.4249 429.46C42.0394 433.396 58.593 435.422 74.9618 435.422Z" fill="white"/>
</g>
<defs>
<clipPath id="clip0_151_451">
<rect width="314" height="468" fill="white" transform="translate(314 468) rotate(-180)"/>
</clipPath>
</defs>
</svg>
