<svg width="791" height="1177" viewBox="0 0 791 1177" fill="none" xmlns="http://www.w3.org/2000/svg">
<g clip-path="url(#clip0_12_28)">
<path d="M608.004 1176.59C562.306 1176.59 516.761 1172.22 472.137 1163.49C280.877 1125.93 140.24 1037.7 65.1519 908.278C0.218771 796.466 -15.9376 656.848 15.6057 481.857C59.9202 235.961 198.864 127.791 307.65 80.4757C434.747 25.1531 562.46 -21.7256 727.562 10.5945C940.21 52.3776 1120.54 167.973 1209.94 319.964C1281.8 442.257 1290.88 581.726 1236.25 723.528C1162.24 915.121 1065 1032.61 921.126 1104.67C826.345 1151.99 717.252 1176.59 608.004 1176.59ZM619.543 40.0027C512.758 40.0027 421.668 74.9436 325.191 116.872C182.554 179.037 89.9244 307.444 57.3043 488.553C27.4535 654.375 42.0713 785.404 102.234 889.058C171.168 1008 302.111 1089.39 480.753 1124.33C622.466 1152.13 775.569 1132.04 901.126 1069.3C1035.14 1002.18 1126.23 891.389 1196.4 709.843C1246.87 579.399 1238.72 451.283 1173.01 339.619C1089.46 197.672 919.744 89.3565 718.946 49.9025C684.013 43.0601 651.087 40.0027 619.543 40.0027Z" fill="#CB8962"/>
<path d="M609.55 1123.6C568.003 1123.6 526.461 1119.67 485.836 1111.66C311.811 1077.59 183.945 997.667 116.089 880.616C57.1568 779.142 42.5394 651.898 71.4668 491.758C102.087 321.857 175.944 198.255 290.885 124.006C403.056 51.6497 550.772 30.6856 718.029 63.5879C912.367 101.731 1077 207.136 1158.4 345.442C1223.33 455.796 1231.49 581.872 1181.94 710.136C1114.24 885.42 1025.61 992.863 894.823 1058.23C808.5 1101.18 708.948 1123.6 609.55 1123.6ZM78.391 492.777C49.7714 651.464 64.081 777.25 122.244 877.411C189.177 992.716 315.35 1071.48 487.223 1105.26C623.397 1131.9 770.649 1112.68 891.286 1052.26C1020.53 987.62 1108.09 881.342 1175.02 707.658C1223.8 581.292 1215.95 457.106 1151.94 348.5C1071.46 211.794 908.671 107.701 716.335 69.994C550.926 37.5282 405.056 58.0558 294.578 129.393C181.33 202.477 108.549 324.769 78.391 492.777Z" fill="#CB8962"/>
<path d="M539.526 1009.46C507.982 1009.46 475.978 1004.66 443.204 992.57C297.182 938.848 209.938 868.384 176.24 776.957C133.157 660.052 185.78 508.35 210.245 448.516C303.49 221.547 544.451 113.232 770.486 196.361C882.042 237.417 975.44 320.691 1026.83 424.931C1079.46 531.789 1084.53 648.698 1041.14 754.391C990.055 878.723 862.958 927.494 748.018 963.599C741.558 965.638 735.092 967.677 728.632 969.715C664.469 989.951 602.768 1009.46 539.526 1009.46ZM216.862 450.991C192.55 510.1 140.542 660.052 182.856 774.772C215.785 864.165 301.798 933.317 445.666 986.312C541.835 1021.69 631.384 993.296 726.323 963.307C732.789 961.268 739.249 959.23 745.709 957.191C859.267 921.671 984.517 873.48 1034.53 751.918C1121.92 539.505 999.751 287.935 767.87 202.621C545.68 120.802 308.722 227.662 216.862 450.991Z" fill="#CB8962"/>
<path d="M560.919 891.535C536.455 891.535 511.683 887.604 486.753 877.704C383.662 836.648 322.73 784.673 300.419 718.578C272.107 634.286 312.728 526.843 331.501 484.622C402.896 324.186 577.228 251.102 736.945 314.869C903.434 381.11 986.677 566.007 918.822 718.578C879.738 806.512 788.034 839.125 705.094 862.707C700.481 864.018 695.864 865.33 691.247 866.638C648.778 879.015 605.081 891.535 560.919 891.535ZM337.963 487.241C319.498 528.882 279.492 634.428 307.189 716.685C328.731 780.742 388.432 831.405 489.523 871.588C556.921 898.378 621.237 879.888 689.404 860.234C694.016 858.922 698.634 857.615 703.251 856.303C784.645 833.156 874.66 801.269 912.511 715.959C978.829 566.733 897.281 385.915 734.329 320.983C578.155 258.818 407.82 330.301 337.963 487.241Z" fill="#CB8962"/>
<path d="M605.84 691.5C597.992 691.5 590.145 690.335 582.144 687.13C549.832 674.323 530.753 657.868 523.673 636.906C514.75 610.262 527.369 576.78 533.215 563.529C543.832 539.656 562.45 521.02 585.686 510.974C609.382 500.639 636.155 500.493 660.773 510.247C712.937 531.063 739.091 589.154 717.857 637.052C705.397 664.857 676.776 675.196 650.77 682.473L646.465 683.785C633.079 687.569 619.687 691.5 605.84 691.5ZM539.675 566.149C534.136 578.673 522.137 610.408 530.292 634.867C536.599 653.795 554.449 668.934 584.759 681.019C604.611 688.881 623.844 683.346 644.31 677.522L648.615 676.215C673.085 669.226 700.011 659.76 711.243 634.575C731.09 590.027 706.625 536.013 658.004 516.504C635.075 507.481 610.457 507.623 588.609 517.089C567.067 526.259 549.678 543.728 539.675 566.149Z" fill="#CB8962"/>
<path d="M609.233 676.503C602.619 676.503 596 675.484 589.386 672.719C562.46 661.945 546.457 648.26 540.453 630.79C532.912 608.516 543.529 580.565 548.454 569.499C557.381 549.552 572.923 533.974 592.309 525.532C612.156 516.943 634.47 516.797 655.085 524.951C698.787 542.275 720.636 590.9 702.785 630.936C692.475 654.376 668.472 662.818 646.777 669.08L643.24 670.099C632.008 673.157 620.772 676.503 609.233 676.503ZM624.007 525.678C614.158 525.678 604.309 527.717 595.079 531.648C577.382 539.363 563.074 553.629 554.919 572.118C545.377 593.665 542.454 614.778 547.225 628.751C552.457 644.329 567.072 656.707 592.156 666.607C608.465 673.157 624.314 668.5 641.238 663.691L644.775 662.676C664.934 656.995 687.09 649.133 696.325 628.463C712.634 591.773 692.475 547.225 652.469 531.209C643.086 527.424 633.544 525.678 624.007 525.678Z" fill="#CB8962"/>
<path d="M603.229 703.146C594.46 703.146 585.532 701.688 576.609 698.196C540.141 683.638 518.599 665.149 510.598 641.563C500.442 611.574 514.908 573.722 521.522 558.725C546.76 501.8 608.614 476.033 665.39 498.6C693.397 509.661 716.321 531.355 728.632 558.145C741.251 585.51 741.558 615.212 729.865 641.709C715.86 673.157 683.394 684.657 654.159 692.953L649.234 694.412C634.158 698.777 618.77 703.146 603.229 703.146ZM527.834 561.344C521.522 575.615 507.829 611.72 517.217 639.525C524.445 661.072 544.758 678.249 579.225 691.934C601.846 700.962 623.848 694.704 647.084 688.003L652.004 686.55C679.703 678.688 710.474 667.768 723.247 639.09C734.324 614.339 733.864 586.53 722.018 560.764C710.474 535.578 688.78 515.197 662.467 504.711C609.536 483.603 551.684 508.062 527.834 561.344Z" fill="#CB8962"/>
<path d="M601.549 720.324C592.928 720.324 584.159 719.017 575.237 716.105C532.154 701.401 505.995 681.307 495.378 654.668C481.838 620.597 495.993 576.049 502.611 558.433C514.764 526.551 537.539 501.073 567.082 486.515C597.239 471.664 631.859 469.625 664.786 480.691C697.717 491.899 725.719 515.631 741.567 545.767C757.877 576.634 760.186 610.842 748.34 642.144C734.339 679.122 697.563 694.412 664.325 705.619L658.94 707.512C640.321 713.92 621.396 720.324 601.549 720.324ZM622.322 480.252C604.318 480.252 586.622 484.33 570.312 492.338C542.464 506.169 520.764 530.336 509.225 560.618C502.765 577.507 489.225 620.309 501.839 652.19C511.688 676.942 536.459 695.719 577.545 709.697C604.625 718.87 629.704 710.282 656.324 701.108L661.709 699.216C693.56 688.442 728.488 674.03 741.567 639.671C752.804 610.116 750.495 577.795 735.107 548.532C720.026 520.001 693.56 497.434 662.17 486.807C649.249 482.437 635.709 480.252 622.322 480.252Z" fill="#CB8962"/>
<path d="M593.235 730.663C576.312 730.663 559.536 727.752 543.534 718.724C499.53 693.973 474.448 665.583 468.755 634.14C461.369 593.665 487.218 546.786 498.757 528.59C519.53 495.684 550.767 471.81 586.77 461.617C623.7 451.137 662.784 455.941 696.637 475.014C768.647 515.485 794.341 605.458 752.952 671.553C728.949 709.843 684.633 719.305 644.934 725.128L638.473 726.147C623.392 728.479 608.163 730.663 593.235 730.663ZM625.394 462.929C613.082 462.929 600.622 464.675 588.618 468.026C554.305 477.78 524.455 500.492 504.608 531.936C493.525 549.552 468.6 594.685 475.524 632.975C480.912 662.384 504.915 689.169 547.076 712.901C575.232 728.771 605.389 724.255 637.24 719.451L643.859 718.432C681.863 712.901 724.331 703.874 746.799 668.061C786.339 605.166 761.721 519.27 692.941 480.691C671.707 469.045 648.63 462.929 625.394 462.929Z" fill="#CB8962"/>
<path d="M588.46 753.084C571.536 753.084 554.766 750.172 538.298 742.017C485.059 715.52 455.056 685.096 446.285 648.698C435.207 602.254 461.98 546.64 474.136 524.951C520.145 442.257 616.927 410.665 699.402 451.72C785.26 494.377 820.802 596.869 777.105 675.63C751.872 721.202 701.249 734.594 655.853 743.622L648.318 745.075C628.619 749.006 608.465 753.084 588.46 753.084ZM480.293 528.009C468.597 549.117 442.439 602.985 453.056 647.24C461.211 681.6 490.137 710.716 541.379 736.194C575.227 753.084 610.001 746.095 646.623 738.672L654.164 737.213C698.014 728.479 746.794 715.52 770.644 672.572C812.493 597.016 778.338 498.746 695.864 457.691C617.234 418.236 524.45 448.518 480.293 528.009Z" fill="#CB8962"/>
<path d="M587.538 772.88C572.918 772.88 558.149 770.553 543.376 764.73C482.289 740.418 446.13 709.409 432.897 670.246C416.126 620.162 440.129 556.54 451.208 531.648C471.365 486.515 506.446 451.138 550.148 432.211C594.92 412.848 645.236 412.412 691.708 430.901C790.338 470.21 839.727 579.834 799.568 670.246C776.337 722.509 722.018 741.871 672.782 755.849L664.781 758.18C639.544 765.457 613.851 772.88 587.538 772.88ZM457.671 534.12C446.9 558.433 423.512 620.162 439.514 668.207C452.131 705.478 486.907 735.029 545.992 758.614C585.23 774.192 622.773 763.418 662.626 751.918L670.627 749.587C718.173 736.048 770.793 717.412 792.954 667.768C831.726 580.565 784.026 475.014 688.938 437.161C644.161 419.4 596 419.837 553.071 438.326C510.91 456.379 477.058 490.446 457.671 534.12Z" fill="#CB8962"/>
<path d="M584.001 788.17C568.152 788.17 552.15 785.692 535.84 779.288C469.213 752.791 429.823 719.163 415.513 676.357C397.203 621.762 423.36 552.463 435.516 525.239C481.675 421.584 594.311 374.414 697.554 415.469C748.489 435.705 790.491 475.307 812.805 523.932C835.729 573.869 836.502 628.024 814.961 676.215C789.57 733.136 730.331 754.249 676.939 769.534L668.011 772.153C640.624 780.161 612.622 788.17 584.001 788.17ZM442.132 527.863C430.284 554.502 404.742 621.909 422.437 674.323C436.131 715.086 474.137 747.407 538.763 773.173C581.692 790.208 622.62 778.415 666.168 765.896L675.091 763.272C727.101 748.426 784.645 728.04 808.802 673.884C829.576 627.298 828.808 575.03 806.647 526.844C785.106 479.672 744.332 441.383 695.096 421.875C595.386 381.984 486.6 427.698 442.132 527.863Z" fill="#CB8962"/>
<path d="M584.927 802.142C570.619 802.142 555.999 800.108 541.072 795.012C468.755 770.407 425.056 736.779 407.208 692.227C384.435 635.306 408.285 560.325 419.517 530.774C462.293 418.381 579.081 362.33 691.251 400.473C807.886 440.218 872.049 564.11 831.424 671.118C807.886 732.843 746.338 758.322 690.33 777.396L681.095 780.6C649.858 791.081 618.007 802.142 584.927 802.142ZM620.316 395.087C535.994 395.087 458.908 447.061 426.133 532.955C415.208 561.783 391.975 634.867 413.824 689.754C430.903 732.409 473.217 764.73 543.534 788.604C590.159 804.474 633.242 789.769 678.786 774.045L688.021 770.846C742.489 752.357 802.347 727.605 824.809 668.641C864.201 565.129 802.035 445.022 688.943 406.588C665.861 398.872 642.783 395.087 620.316 395.087Z" fill="#CB8962"/>
<path d="M575.688 846.695C558.144 846.695 540.294 844.218 522.295 837.96C433.972 807.824 380.425 766.769 358.73 712.462C331.033 643.022 359.961 551.302 373.809 515.197C398.582 449.973 445.512 397.562 505.827 367.717C567.533 337.29 638.464 333.067 705.708 355.925C848.189 404.55 926.665 555.96 876.964 686.55C848.343 761.965 772.948 793.12 704.628 816.413L693.243 820.344C655.085 833.302 616.154 846.695 575.688 846.695ZM618.924 348.063C580.919 348.063 543.529 356.653 509.062 373.686C450.282 402.803 404.583 453.758 380.425 517.524C366.885 553.048 338.419 642.875 365.346 710.282C386.272 762.692 438.434 802.435 524.599 831.844C581.994 851.353 634.773 833.302 690.627 814.082L702.012 810.151C768.791 787.443 842.496 757.015 870.191 684.365C918.664 557.126 842.189 409.646 703.246 362.185C675.547 352.722 647.079 348.063 618.924 348.063Z" fill="#CB8962"/>
<path d="M570.614 819.617C542.301 819.617 514.299 814.809 487.526 799.67C412.59 757.595 371.507 711.155 361.813 658.014C349.504 590.027 392.895 511.408 412.283 480.692C447.057 425.369 499.525 385.478 559.997 368.299C621.852 350.829 687.402 358.836 744.332 390.865C801.574 423.039 844.81 476.907 862.967 538.49C881.586 601.673 872.97 666.461 838.964 720.617C798.804 784.527 724.331 800.397 657.706 810.151L646.628 811.755C621.391 815.686 595.851 819.617 570.614 819.617ZM418.284 484.184C399.358 514.178 356.89 591.192 368.738 656.995C377.97 708.097 417.976 752.937 491.063 794.139C539.685 821.51 591.081 813.794 645.395 805.493L656.472 803.893C721.562 794.285 794.187 778.996 832.652 717.413C865.737 664.71 874.045 601.966 856.041 540.383C838.35 480.399 796.342 427.989 740.641 396.688C685.401 365.533 621.852 357.817 561.845 374.85C503.221 391.447 452.135 430.319 418.284 484.184Z" fill="#CB8962"/>
<path d="M562.613 857.468C534.299 857.468 506.144 852.664 478.601 838.979C389.202 794.573 338.579 743.329 323.961 682.326C305.343 604.439 350.581 510.827 370.892 474.287C448.135 335.251 610.774 282.258 749.41 351.12C893.585 422.748 953.443 595.123 880.045 727.313C837.73 803.601 752.64 826.167 676.171 841.452L663.552 843.929C630.314 850.626 596.466 857.468 562.613 857.468ZM377.2 477.341C357.197 513.304 312.729 605.165 330.886 680.873C345.042 739.832 394.434 789.623 481.833 833.01C540.15 861.98 599.389 850.041 662.011 837.375L674.63 834.902C749.564 820.051 832.964 797.924 873.738 724.255C945.288 595.269 886.818 427.116 746.026 357.089C611.235 289.828 452.597 341.657 377.2 477.341Z" fill="#CB8962"/>
<path d="M577.228 919.34C562.306 919.34 547.072 917.74 531.223 914.243C415.513 888.185 341.963 843.783 306.419 778.269C261.028 694.558 283.801 575.176 295.802 527.716C340.886 347.625 510.142 242.221 689.552 282.402C778.031 302.202 857.582 355.777 907.745 429.007C959.135 504.277 975.906 591.773 954.979 675.63C930.207 774.338 840.039 823.69 757.411 862.126C752.794 864.311 748.181 866.491 743.564 868.53C688.784 894.593 636.16 919.34 577.228 919.34ZM613.697 280.655C467.675 280.655 340.579 378.198 302.726 529.316C291.033 576.049 268.568 693.539 312.882 775.211C347.349 838.833 419.36 882.215 533.071 907.693C608.926 924.729 672.936 894.593 740.795 862.707C745.412 860.526 750.024 858.341 754.642 856.157C835.729 818.305 924.361 769.968 948.365 674.03C968.98 592.065 952.517 506.316 902.047 432.647C852.811 360.728 774.954 308.317 688.17 288.808C662.938 283.276 638.161 280.655 613.697 280.655Z" fill="#CB8962"/>
<path d="M566.453 990.097C548.3 990.097 529.682 988.205 510.291 983.835C368.579 952.099 278.719 897.651 235.328 817.725C179.781 715.374 207.785 569.353 222.248 511.266C277.488 290.993 484.598 162.004 703.86 211.212C932.358 262.458 1081 482.73 1028.53 692.081C998.215 812.774 887.888 873.046 786.949 920.213C781.257 922.837 775.718 925.456 770.025 928.221C702.785 959.815 638.31 990.097 566.453 990.097ZM229.173 512.719C214.863 570.079 187.166 714.213 241.636 814.667C283.95 892.847 372.426 946.13 511.832 977.431C605.077 998.393 683.706 961.415 766.795 922.252C772.487 919.632 778.026 917.013 783.719 914.248C883.271 867.803 992.057 808.405 1021.6 690.627C1073.15 484.769 926.972 268.136 702.166 217.763C486.907 169.429 283.489 296.234 229.173 512.719Z" fill="#CB8962"/>
<path d="M545.689 949.622C513.992 949.622 482.14 944.384 449.83 930.552C326.734 877.996 254.877 813.501 230.258 733.429C198.715 630.936 251.338 502.531 275.342 452.011C318.733 361.02 392.129 290.993 482.145 254.596C574.157 217.472 676.324 218.928 769.881 258.964C968.524 343.695 1063 569.06 976.218 751.191C926.209 856.157 814.5 892.701 713.714 918.759C708.022 920.213 702.483 921.671 696.79 923.125C645.399 936.522 595.544 949.622 545.689 949.622ZM619.855 234.36C573.849 234.36 528.305 243.095 484.915 260.565C396.592 296.233 324.427 365.096 281.805 454.631C258.109 504.423 206.255 631.082 237.028 731.39C261.032 809.57 331.658 872.607 452.754 924.29C533.536 958.796 612.008 938.268 694.943 916.428C700.64 914.975 706.179 913.517 711.871 912.063C811.116 886.439 921.131 850.48 969.911 748.133C1011.61 660.779 1012.84 561.637 973.295 469.045C934.671 378.635 859.584 304.241 767.112 264.787C719.412 244.55 669.403 234.36 619.855 234.36Z" fill="#CB8962"/>
<path d="M557.833 1046.29C537.059 1046.29 515.672 1044.11 493.67 1039.16C331.492 1002.76 228.553 940.599 179.007 849.022C157.927 810.005 114.074 697.616 164.081 498.161C227.321 246.007 464.281 98.3827 715.394 154.725C839.262 182.532 950.664 257.363 1020.98 360.001C1092.99 465.26 1116.53 587.842 1087.15 705.185C1052.52 843.198 926.2 912.351 810.487 966.219C804.027 969.277 797.561 972.335 791.101 975.246C713.858 1011.64 640.153 1046.29 557.833 1046.29ZM170.851 499.619C121.459 696.885 164.389 807.532 185.161 845.968C233.784 935.649 335.184 996.793 495.21 1032.75C602.149 1056.77 692.317 1014.41 787.871 969.423C794.331 966.365 800.792 963.307 807.257 960.396C921.582 907.113 1046.22 838.979 1080.07 703.727C1139.31 467.587 971.437 219.073 713.705 161.276C466.589 105.662 233.168 251.248 170.851 499.619Z" fill="#CB8962"/>
<path d="M568.147 1066.24C546.606 1066.24 524.757 1064.2 502.448 1059.83C332.729 1026.49 223.79 964.765 169.32 870.861C146.085 830.825 97.0006 715.374 142.854 506.462C200.709 242.513 442.438 82.514 705.247 134.052C834.961 159.529 953.131 234.214 1029.3 339.036C1107.46 446.479 1135.78 573.284 1108.84 696.012C1075.46 848.587 948.667 929.387 842.036 982.816C756.485 1025.62 665.856 1066.24 568.147 1066.24ZM607.539 131.285C387.968 131.285 199.632 280.511 149.778 508.062C134.699 576.922 107.002 749.733 175.474 867.95C228.867 959.961 336.268 1020.67 503.83 1053.57C525.525 1057.79 546.913 1059.69 567.994 1059.69C664.32 1059.69 754.023 1019.51 838.806 977.139C944.055 924.437 1069.15 844.803 1102.08 694.992C1156.24 447.644 973.904 193.887 704.014 140.894C671.241 134.343 639.083 131.285 607.539 131.285Z" fill="#CB8962"/>
<path d="M567.379 1092.88C539.526 1092.88 515.983 1089.68 495.368 1085.75C325.033 1052.26 213.632 986.747 154.853 885.273C99.6145 790.208 84.6892 643.021 115.617 501.366C176.703 222.713 432.126 53.5424 709.706 107.992C846.653 134.925 971.442 213.832 1051.91 324.478C1134.54 438.035 1164.24 571.83 1135.92 701.547C1107.62 830.532 1020.52 927.494 861.729 1006.99C726.477 1074.68 634.465 1092.88 567.379 1092.88ZM122.541 502.673C91.7669 642.875 106.539 788.17 161.008 882.074C218.864 981.65 328.726 1046.15 496.904 1079.2C627.846 1104.82 758.794 1050.95 858.499 1001.16C1015.29 922.69 1101.3 827.04 1129.16 700.235C1157.16 572.411 1127.77 440.219 1046.22 328.263C966.671 218.928 843.572 141.039 708.324 114.543C434.589 60.8216 182.858 227.663 122.541 502.673Z" fill="#CB8962"/>
<path d="M583.852 1111.81C546.462 1111.81 510.301 1108.02 475.681 1100.16C305.348 1061.87 193.793 990.097 134.399 880.615C78.3902 777.25 64.696 621.035 99.4703 482.437C135.784 337.435 228.105 213.249 352.432 141.913C466.603 76.5447 596.624 58.7832 728.642 90.5206C896.667 130.848 1024.84 214.415 1099.32 331.903C1168.87 441.82 1187.94 579.253 1152.86 718.87C1117.16 861.107 1017.15 974.081 863.587 1045.71C770.342 1089.39 674.02 1111.81 583.852 1111.81ZM602.163 81.9315C515.84 81.9315 432.291 104.06 356.125 147.736C233.337 218.2 142.246 340.783 106.241 484.037C71.9278 621.035 85.3143 775.504 140.554 877.557C198.87 985.147 308.887 1055.9 477.22 1093.61C593.855 1119.81 729.875 1100.6 860.51 1039.74C1012.23 968.984 1111.01 857.468 1146.09 717.266C1181.17 577.361 1162.86 445.314 1093.31 335.251C1019.92 219.219 893.129 136.817 726.952 96.9267C685.098 87.0267 643.398 81.9315 602.163 81.9315Z" fill="#CB8962"/>
</g>
<defs>
<clipPath id="clip0_12_28">
<rect width="791" height="1177" fill="white"/>
</clipPath>
</defs>
</svg>
