<svg width="150" height="95" viewBox="0 0 150 95" fill="none" xmlns="http://www.w3.org/2000/svg">
<path d="M34.6891 70.4842C32.0818 70.4842 29.4833 70.2226 26.9374 69.6993C16.0252 67.4492 8.00128 62.1641 3.71718 54.4107C0.0124825 47.7127 -0.909303 39.3489 0.890371 28.8658C3.41869 14.1354 11.346 7.65539 17.5527 4.82094C24.8041 1.50681 32.0906 -1.30148 41.5103 0.634668C53.6428 3.13771 63.9317 10.0625 69.0322 19.1676C73.1319 26.4936 73.6499 34.8487 70.5334 43.3433C66.3107 54.8206 60.7625 61.8588 52.5542 66.1759C47.1464 69.0103 40.9222 70.4842 34.6891 70.4842ZM35.3476 2.39638C29.255 2.39638 24.0579 4.48952 18.5535 7.00128C10.4155 10.7253 5.13057 18.4176 3.26945 29.267C1.56634 39.2006 2.40035 47.0499 5.8329 53.2595C9.76584 60.3849 17.2367 65.2601 27.429 67.3533C35.5144 69.0191 44.2494 67.8155 51.4129 64.0566C59.0594 60.036 64.2565 53.3991 68.2596 42.5235C71.1391 34.7091 70.6739 27.0343 66.9253 20.345C62.1583 11.8417 52.4752 5.35293 41.0187 2.98944C39.0259 2.57953 37.1472 2.39638 35.3476 2.39638Z" fill="#087A82"/>
<path d="M34.7769 67.3095C32.4066 67.3095 30.0363 67.074 27.7186 66.5943C17.7897 64.5535 10.4944 59.7655 6.62292 52.7535C3.26061 46.6747 2.42661 39.0522 4.07705 29.4587C5.82405 19.2808 10.0379 11.8763 16.5958 7.42844C22.9956 3.09391 31.4233 1.83804 40.966 3.80907C52.0537 6.09407 61.4472 12.4084 66.0912 20.6937C69.7959 27.3045 70.2612 34.8572 67.4344 42.5407C63.5716 53.0413 58.515 59.4777 51.0529 63.3936C46.128 65.9664 40.448 67.3095 34.7769 67.3095ZM4.4721 29.5197C2.83922 39.026 3.65565 46.5613 6.97408 52.5616C10.7929 59.469 17.9916 64.1872 27.7976 66.2106C35.567 67.8066 43.9684 66.6554 50.851 63.036C58.2253 59.1637 63.2205 52.7971 67.0393 42.3925C69.8222 34.8223 69.3745 27.383 65.7225 20.8768C61.1311 12.6874 51.8431 6.45165 40.8694 4.19281C31.4321 2.24795 23.1097 3.47766 16.8065 7.75114C10.3452 12.1293 6.19276 19.4552 4.4721 29.5197Z" fill="#087A82"/>
<path d="M30.7824 60.4721C28.9828 60.4721 27.1568 60.1843 25.2869 59.4604C16.9557 56.2422 11.978 52.0211 10.0555 46.544C7.59737 39.5408 10.5997 30.4531 11.9956 26.8686C17.3156 13.272 31.0634 6.78327 43.9596 11.7632C50.3243 14.2226 55.6531 19.2112 58.5852 25.4557C61.5876 31.8572 61.8773 38.8605 59.4017 45.1922C56.4871 52.6403 49.2357 55.562 42.6779 57.7249C42.3091 57.847 41.9404 57.9691 41.5717 58.0912C37.9109 59.3034 34.3906 60.4721 30.7824 60.4721ZM12.3731 27.0169C10.986 30.5578 8.01875 39.5408 10.4329 46.4132C12.3116 51.7682 17.2191 55.9108 25.4273 59.0854C30.9141 61.2047 36.0234 59.504 41.44 57.7074C41.8087 57.5853 42.1775 57.4632 42.5462 57.3411C49.025 55.2131 56.171 52.3263 59.0242 45.044C64.0106 32.3195 57.0401 17.2489 43.8103 12.1382C31.1336 7.23677 17.6141 13.6383 12.3731 27.0169Z" fill="#087A82"/>
<path d="M32.0029 53.4078C30.607 53.4078 29.1936 53.1723 27.7714 52.5792C21.8896 50.1198 18.4131 47.0063 17.1402 43.0468C15.5248 37.9971 17.8425 31.5607 18.9135 29.0315C22.9869 19.4205 32.9334 15.0424 42.0459 18.8624C51.5447 22.8306 56.2941 33.9068 52.4226 43.0468C50.1927 48.3145 44.9605 50.2681 40.2287 51.6809C39.9653 51.7594 39.702 51.8379 39.4386 51.9164C37.0156 52.6577 34.5224 53.4078 32.0029 53.4078ZM19.2822 29.1885C18.2288 31.6828 15.9462 38.0058 17.5264 42.9334C18.7555 46.7708 22.1617 49.8058 27.9294 52.2129C31.7746 53.8177 35.4442 52.71 39.3332 51.5327C39.5966 51.4542 39.86 51.3757 40.1233 51.2972C44.7674 49.9105 49.903 48.0005 52.0627 42.8898C55.8464 33.9503 51.1935 23.1184 41.8967 19.2287C32.9861 15.5046 23.2678 19.7868 19.2822 29.1885Z" fill="#087A82"/>
<path d="M34.5663 41.4246C34.1186 41.4246 33.6709 41.3548 33.2144 41.1629C31.3708 40.3955 30.2822 39.4099 29.8784 38.1541C29.3692 36.558 30.089 34.5521 30.4226 33.7585C31.0284 32.3282 32.0906 31.2118 33.4163 30.6101C34.7682 29.9908 36.2957 29.9821 37.7004 30.5665C40.6764 31.8136 42.1688 35.2934 40.9573 38.1628C40.2462 39.8286 38.6134 40.4478 37.1297 40.8839L36.8839 40.9623C36.1202 41.1891 35.3564 41.4246 34.5663 41.4246ZM30.7914 33.9155C30.4753 34.6655 29.7906 36.5668 30.2559 38.032C30.6158 39.1658 31.6341 40.0728 33.3636 40.7966C34.4961 41.2676 35.5934 40.9362 36.761 40.5873L37.0068 40.5088C38.4027 40.0902 39.939 39.5233 40.5798 38.0145C41.7123 35.3458 40.3165 32.1101 37.5423 30.9415C36.2343 30.4008 34.8297 30.4095 33.5831 30.9764C32.354 31.5258 31.362 32.5724 30.7914 33.9155Z" fill="#087A82"/>
<path d="M34.7594 40.5262C34.3819 40.5262 34.0044 40.4652 33.6269 40.2995C32.0906 39.6541 31.1776 38.8343 30.8352 37.7877C30.405 36.4533 31.0108 34.7788 31.2917 34.116C31.8009 32.9211 32.6876 31.988 33.7937 31.4821C34.9262 30.9676 36.1991 30.9588 37.3755 31.4472C39.8687 32.4851 41.1153 35.398 40.097 37.7964C39.5088 39.2005 38.1393 39.7064 36.9014 40.0814L36.6995 40.1424C36.0587 40.3256 35.4178 40.5262 34.7594 40.5262ZM35.6022 31.4908C35.0403 31.4908 34.4785 31.6129 33.9517 31.8484C32.9422 32.3107 32.1257 33.1654 31.6604 34.273C31.1161 35.5637 30.9493 36.8283 31.2215 37.6656C31.52 38.5988 32.354 39.3401 33.7849 39.9331C34.7155 40.3256 35.6197 40.0465 36.5854 39.7587L36.7873 39.6977C37.9373 39.3575 39.2015 38.8866 39.7282 37.6481C40.6588 35.4504 39.5088 32.7816 37.2262 31.8223C36.6907 31.5955 36.1465 31.4908 35.6022 31.4908Z" fill="#087A82"/>
<path d="M34.4169 42.1222C33.9165 42.1222 33.4074 42.035 32.8982 41.8257C30.8176 40.9536 29.5886 39.8459 29.1321 38.4331C28.5527 36.6365 29.3779 34.3689 29.7554 33.4706C31.1951 30.0605 34.7242 28.5169 37.9636 29.8687C39.5614 30.5315 40.8694 31.831 41.5717 33.4357C42.2916 35.0753 42.3092 36.8545 41.642 38.4418C40.8431 40.3256 38.9907 41.0146 37.3228 41.5117L37.0418 41.5989C36.1815 41.8606 35.3036 42.1222 34.4169 42.1222ZM30.1153 33.6276C29.7554 34.4823 28.974 36.6452 29.5095 38.311C29.9222 39.6017 31.081 40.6309 33.0474 41.4507C34.3379 41.9914 35.5933 41.6164 36.9189 41.2152L37.1998 41.128C38.78 40.657 40.5358 40.0029 41.2645 38.2848C41.8966 36.8022 41.8702 35.1364 41.1943 33.5927C40.5358 32.0839 39.298 30.8629 37.7968 30.235C34.7769 28.9704 31.476 30.4356 30.1153 33.6276Z" fill="#087A82"/>
<path d="M34.3203 43.1515C33.8287 43.1515 33.3283 43.073 32.8191 42.8986C30.361 42.0177 28.8686 40.8142 28.2629 39.2182C27.4903 37.1773 28.298 34.5086 28.6755 33.4533C29.369 31.5433 30.6683 30.0171 32.3538 29.145C34.0745 28.2554 36.0498 28.1333 37.9285 28.7961C39.8071 29.4677 41.4049 30.8892 42.3091 32.6946C43.2397 34.5435 43.3714 36.593 42.6954 38.4681C41.8965 40.6834 39.7984 41.5991 37.9021 42.2706L37.5949 42.384C36.5326 42.7678 35.4528 43.1515 34.3203 43.1515ZM35.5055 28.77C34.4783 28.77 33.4688 29.0141 32.5382 29.4938C30.9492 30.3223 29.7114 31.7701 29.053 33.5841C28.6843 34.5958 27.9117 37.1599 28.6316 39.0699C29.1935 40.5525 30.6068 41.6776 32.9508 42.5148C34.4959 43.0643 35.9268 42.5497 37.4456 42.0003L37.7529 41.8869C39.5701 41.2415 41.5629 40.3781 42.3091 38.3199C42.95 36.5494 42.8183 34.6133 41.9404 32.8603C41.0801 31.1509 39.5701 29.7991 37.7792 29.1624C37.0418 28.9008 36.2692 28.77 35.5055 28.77Z" fill="#087A82"/>
<path d="M33.8463 43.7707C32.8806 43.7707 31.9237 43.5962 31.0107 43.0555C28.4999 41.5729 27.069 39.8722 26.7442 37.9884C26.3228 35.5639 27.7976 32.7556 28.456 31.6654C29.6412 29.6944 31.4233 28.2641 33.4776 27.6536C35.5845 27.0256 37.8143 27.3134 39.7457 28.4559C43.8542 30.8805 45.3203 36.2703 42.9588 40.2298C41.5893 42.5235 39.0609 43.0904 36.796 43.4393L36.4273 43.5003C35.567 43.6399 34.6978 43.7707 33.8463 43.7707ZM35.6811 27.7321C34.9788 27.7321 34.2677 27.8367 33.5829 28.0373C31.6252 28.6216 29.9221 29.9822 28.7896 31.866C28.1576 32.9213 26.7354 35.6249 27.1304 37.9186C27.4377 39.6804 28.8072 41.2851 31.2126 42.7067C32.8192 43.6573 34.5398 43.3869 36.357 43.0991L36.7345 43.0381C38.9029 42.7067 41.3259 42.166 42.6076 40.0205C44.8638 36.2529 43.4592 31.1072 39.535 28.7961C38.3235 28.0984 37.0067 27.7321 35.6811 27.7321Z" fill="#087A82"/>
<path d="M33.5742 45.1136C32.6085 45.1136 31.6516 44.9392 30.7122 44.4508C27.6747 42.8635 25.9628 41.0407 25.4624 38.8604C24.8304 36.0783 26.3579 32.7467 27.0514 31.4472C29.6763 26.4935 35.1983 24.6009 39.9037 27.0604C44.8024 29.6157 46.8303 35.7556 44.3371 40.4739C42.8973 43.2037 40.0091 44.006 37.4193 44.5468L36.9891 44.6339C35.8654 44.8694 34.7154 45.1136 33.5742 45.1136ZM27.4026 31.6304C26.7354 32.895 25.243 36.1219 25.8487 38.7732C26.314 40.8315 27.9644 42.5757 30.8878 44.102C32.8192 45.1136 34.8032 44.695 36.8926 44.2502L37.3227 44.163C39.8247 43.6397 42.6076 42.8635 43.9684 40.2907C46.3562 35.7643 44.4073 29.8774 39.7018 27.4179C35.2158 25.0544 29.9221 26.8685 27.4026 31.6304Z" fill="#087A82"/>
<path d="M33.5216 46.3C32.6877 46.3 31.8449 46.1605 31.0021 45.8116C27.5169 44.3552 25.4538 42.4975 24.6988 40.1515C23.7419 37.1513 25.1114 33.3401 25.7435 31.8487C26.8936 29.1451 28.8951 27.0258 31.3884 25.892C33.943 24.732 36.8137 24.7059 39.465 25.8135C45.0922 28.1683 47.9103 34.7355 45.619 40.1515C44.2934 43.2824 41.1944 44.4424 38.3851 45.2796L37.9286 45.4192C36.4889 45.8552 35.0228 46.3 33.5216 46.3ZM26.1123 31.997C25.4977 33.4534 24.1633 37.1513 25.0763 40.0293C25.7962 42.262 27.7802 44.0325 31.1513 45.4453C33.39 46.3785 35.532 45.7331 37.8057 45.0441L38.2622 44.9046C40.9749 44.0935 43.9773 42.9772 45.2415 40.0032C47.4537 34.7791 44.7323 28.4561 39.3069 26.1885C36.7523 25.1245 34.0045 25.1507 31.5552 26.2583C29.1497 27.3397 27.2184 29.3805 26.1123 31.997Z" fill="#087A82"/>
<path d="M33.3196 47.2156C32.4154 47.2156 31.5024 47.0673 30.5718 46.6836C26.7705 45.0963 24.5232 43.0817 23.7067 40.5176C22.662 37.2471 24.1544 33.0957 24.848 31.4648C27.4816 25.2551 33.9078 22.4294 39.7984 24.8888C42.7043 26.1011 45.1009 28.4733 46.3738 31.3863C47.6819 34.3777 47.7258 37.6221 46.4968 40.5088C45.0482 43.9189 41.6684 45.1835 38.6221 46.0993L38.1129 46.2562C36.5502 46.7359 34.9525 47.2156 33.3196 47.2156ZM25.2255 31.6217C24.5495 33.2178 23.0922 37.2558 24.1018 40.3955C24.8831 42.8375 27.0515 44.7736 30.7386 46.3173C33.1879 47.3377 35.5231 46.6313 38.0075 45.8812L38.5167 45.7242C41.484 44.8346 44.7673 43.6137 46.1456 40.3693C47.3307 37.5785 47.2868 34.4475 46.0227 31.5607C44.7936 28.735 42.4672 26.4412 39.658 25.2726C33.9693 22.8829 27.7626 25.6214 25.2255 31.6217Z" fill="#087A82"/>
<path d="M33.3722 48.0527C32.5558 48.0527 31.7218 47.9306 30.8703 47.6254C26.7442 46.1515 24.251 44.1368 23.2326 41.4681C21.9333 38.058 23.2941 33.5665 23.9349 31.7961C26.3755 25.0632 33.0387 21.7054 39.4385 23.9904C46.0929 26.3714 49.7537 33.7932 47.436 40.2035C46.0929 43.9013 42.5813 45.4276 39.3858 46.5701L38.8591 46.7619C37.0769 47.3899 35.2597 48.0527 33.3722 48.0527ZM35.3914 23.6677C30.5805 23.6677 26.1823 26.7813 24.3124 31.9269C23.6891 33.6537 22.3635 38.0318 23.6101 41.3198C24.5846 43.8752 26.9988 45.8113 31.0107 47.2416C33.6707 48.1923 36.1288 47.3114 38.7274 46.3695L39.2541 46.1776C42.3619 45.07 45.7768 43.5873 47.0585 40.0552C49.3059 33.8543 45.7593 26.6591 39.3068 24.3567C37.99 23.8945 36.6731 23.6677 35.3914 23.6677Z" fill="#087A82"/>
<path d="M32.8455 50.7218C31.8447 50.7218 30.8264 50.5735 29.7993 50.1985C24.7602 48.3931 21.7051 45.9337 20.4673 42.6806C18.8871 38.5205 20.5375 33.0261 21.3276 30.8632C22.741 26.956 25.4186 23.8163 28.8599 22.0284C32.3802 20.2056 36.4273 19.9527 40.2637 21.322C48.393 24.2349 52.8702 33.3052 50.0346 41.1282C48.4018 45.6459 44.1001 47.5123 40.2023 48.9077L39.5526 49.1432C37.3755 49.9194 35.1544 50.7218 32.8455 50.7218ZM35.3124 20.851C33.144 20.851 31.0108 21.3656 29.0443 22.386C25.6907 24.1303 23.0834 27.1828 21.7051 31.0027C20.9326 33.1307 19.3085 38.5118 20.8448 42.5498C22.0387 45.6895 25.0147 48.0705 29.9309 49.8322C33.2055 51.0009 36.2166 49.9194 39.4034 48.7682L40.053 48.5327C43.8631 47.1721 48.0682 45.3494 49.6484 40.9974C52.4137 33.3749 48.0506 24.5402 40.1233 21.697C38.5431 21.1301 36.9189 20.851 35.3124 20.851Z" fill="#087A82"/>
<path d="M32.5559 49.0996C30.9406 49.0996 29.3428 48.8118 27.8153 47.9047C23.54 45.3843 21.196 42.6021 20.6429 39.4188C19.9406 35.346 22.4163 30.6364 23.5224 28.7962C25.5065 25.4821 28.5001 23.0924 31.9502 22.0633C35.4793 21.0167 39.2191 21.4964 42.4673 23.4151C45.733 25.3425 48.1999 28.5694 49.2358 32.2586C50.2981 36.0437 49.8065 39.9247 47.8663 43.169C45.575 46.9977 41.326 47.9483 37.5248 48.5327L36.8927 48.6286C35.453 48.8641 33.9957 49.0996 32.5559 49.0996ZM23.8648 29.0055C22.785 30.8021 20.362 35.4157 21.038 39.3578C21.5647 42.419 23.8472 45.1052 28.0172 47.5733C30.7913 49.213 33.7235 48.7507 36.8224 48.2536L37.4545 48.1577C41.168 47.5821 45.3117 46.6663 47.5064 42.9772C49.3938 39.82 49.8679 36.0611 48.8408 32.3719C47.8312 28.7787 45.4345 25.639 42.2566 23.7639C39.105 21.8976 35.4793 21.4353 32.0555 22.4557C28.7107 23.45 25.7962 25.7786 23.8648 29.0055Z" fill="#087A82"/>
<path d="M32.0995 51.367C30.4842 51.367 28.8776 51.0792 27.3062 50.2594C22.2057 47.5993 19.3174 44.5294 18.4834 40.8751C17.4212 36.2092 20.0022 30.6014 21.161 28.4123C25.568 20.0834 34.8473 16.9088 42.7571 21.034C50.9829 25.3249 54.3979 35.651 50.2104 43.5701C47.7962 48.1401 42.9414 49.4919 38.5783 50.4076L37.8585 50.5559C35.9622 50.9571 34.0309 51.367 32.0995 51.367ZM21.5209 28.5954C20.3797 30.7496 17.8426 36.2528 18.8785 40.7879C19.6861 44.3201 22.5042 47.3028 27.4906 49.9018C30.8178 51.6373 34.1977 50.9222 37.7707 50.1634L38.4905 50.0152C42.7659 49.1256 47.524 47.7999 49.8504 43.3869C53.9326 35.6597 50.5967 25.5866 42.564 21.3916C34.8736 17.3623 25.8226 20.4671 21.5209 28.5954Z" fill="#087A82"/>
<path d="M32.9333 55.0733C32.0818 55.0733 31.2127 54.9774 30.3085 54.7681C23.7067 53.207 19.5104 50.547 17.4825 46.6223C14.8927 41.6075 16.192 34.456 16.8767 31.6128C19.4489 20.8244 29.1057 14.5102 39.3419 16.9173C44.3898 18.1034 48.9285 21.3128 51.7904 25.6997C54.7226 30.2087 55.6795 35.4502 54.4855 40.4737C53.0721 46.3868 47.9277 49.3434 43.2134 51.6458C42.9501 51.7766 42.6867 51.9075 42.4233 52.0296C39.298 53.5907 36.2957 55.0733 32.9333 55.0733ZM35.0139 16.8126C26.6828 16.8126 19.4314 22.656 17.2718 31.7088C16.6046 34.5083 15.3229 41.5465 17.8512 46.4392C19.8177 50.2504 23.9262 52.8494 30.4138 54.3756C34.7418 55.396 38.3938 53.5907 42.2653 51.6807C42.5287 51.5499 42.792 51.4191 43.0554 51.2882C47.6819 49.0207 52.7385 46.1252 54.108 40.3778C55.2844 35.4677 54.3451 30.3308 51.4656 25.9177C48.6563 21.6094 44.2142 18.4697 39.2629 17.301C37.8232 16.9696 36.4098 16.8126 35.0139 16.8126Z" fill="#087A82"/>
<path d="M32.3188 59.3122C31.2829 59.3122 30.2206 59.1988 29.1145 58.9372C21.0291 57.0359 15.9022 53.7741 13.4266 48.9861C10.2574 42.855 11.8551 34.1074 12.6804 30.6276C15.832 17.4321 27.6484 9.70497 40.1583 12.6528C53.195 15.7227 61.6754 28.9182 58.6818 41.4595C56.9524 48.6896 50.6579 52.3002 44.8989 55.126C44.5741 55.2829 44.2581 55.4399 43.9333 55.6056C40.0969 57.4982 36.4185 59.3122 32.3188 59.3122ZM13.0754 30.7148C12.259 34.151 10.6788 42.7852 13.7865 48.803C16.2007 53.4863 21.2486 56.6784 29.2023 58.5535C34.5223 59.8093 39.0083 57.5941 43.7489 55.248C44.0737 55.0911 44.3898 54.9341 44.7146 54.7684C50.3945 51.9863 56.6012 48.4279 58.2868 41.3723C61.2277 29.0403 52.8877 16.0629 40.0618 13.0453C27.7801 10.1498 16.1744 17.7461 13.0754 30.7148Z" fill="#087A82"/>
<path d="M31.1337 56.8874C29.3252 56.8874 27.508 56.5734 25.6644 55.7449C18.6413 52.5965 14.5416 48.7329 13.1369 43.9361C11.3373 37.7963 14.3396 30.104 15.7092 27.0777C18.1848 21.6268 22.3723 17.4319 27.508 15.2515C32.7578 13.0276 38.587 13.1148 43.9245 15.5131C55.2581 20.589 60.6483 34.0897 55.697 45.0002C52.8439 51.2883 46.4704 53.4773 40.7202 55.0385C40.3954 55.1257 40.0794 55.2129 39.7545 55.3001C36.8224 56.1025 33.9781 56.8874 31.1337 56.8874ZM35.3651 14.0392C32.7402 14.0392 30.1417 14.5625 27.666 15.6091C22.6269 17.7458 18.5096 21.871 16.0779 27.2347C14.7259 30.2174 11.7674 37.805 13.5232 43.8141C14.8927 48.4974 18.9222 52.2738 25.8312 55.3699C30.4401 57.4369 34.9174 56.2071 39.6492 54.8989C39.974 54.8117 40.2901 54.7245 40.6149 54.6373C46.2773 53.1023 52.5542 50.9481 55.3371 44.817C57.7162 39.5842 57.7864 33.6449 55.5302 28.0981C53.3267 22.6821 49.0426 18.2255 43.7665 15.862C41.0451 14.6497 38.1919 14.0392 35.3651 14.0392Z" fill="#087A82"/>
<path d="M31.8272 62.6788C30.6421 62.6788 29.4218 62.548 28.1665 62.2514C18.9135 60.0711 13.0404 56.347 10.2136 50.8613C9.01089 48.524 6.5089 41.7911 9.36204 29.8428C12.9702 14.7373 26.4897 5.89384 40.8169 9.26901C47.8839 10.9348 54.2398 15.4176 58.2517 21.5662C62.3603 27.8717 63.7034 35.2151 62.0267 42.2446C60.0514 50.5124 52.844 54.6551 46.2422 57.882C45.8735 58.0652 45.5048 58.2483 45.1361 58.4228C40.7291 60.6031 36.524 62.6788 31.8272 62.6788ZM9.74832 29.93C6.93029 41.7475 9.37961 48.3757 10.5648 50.6782C13.3389 56.0505 19.1242 59.7135 28.2543 61.8677C34.3556 63.3067 39.5 60.7688 44.9517 58.0739C45.3204 57.8907 45.6892 57.7076 46.0579 57.5332C52.5806 54.3411 59.6915 50.2595 61.6228 42.1573C65.0027 28.0113 55.4249 13.1239 40.7203 9.66147C26.6214 6.32991 13.3038 15.0513 9.74832 29.93Z" fill="#087A82"/>
<path d="M32.4155 63.8735C31.1865 63.8735 29.9399 63.7514 28.6669 63.4898C18.9838 61.4926 12.7683 57.7947 9.66062 52.1694C8.335 49.771 5.53453 42.855 8.15064 30.3398C11.4515 14.5279 25.2432 4.9431 40.2375 8.03047C47.6381 9.55671 54.3803 14.0308 58.7259 20.3102C63.1856 26.7466 64.8009 34.3429 63.2646 41.695C61.3595 50.835 54.1257 55.6754 48.042 58.8761C43.1609 61.4402 37.9901 63.8735 32.4155 63.8735ZM34.6629 7.86476C22.1354 7.86476 11.3901 16.8042 8.54569 30.4357C7.68536 34.5609 6.10516 44.9132 10.0118 51.995C13.058 57.5069 19.1857 61.1437 28.7459 63.1147C29.9838 63.3676 31.204 63.481 32.4067 63.481C37.9023 63.481 43.0204 61.0739 47.8576 58.536C53.8624 55.3789 60.9996 50.6083 62.8783 41.634C65.9685 26.8163 55.5655 11.615 40.1673 8.44038C38.2974 8.04791 36.4626 7.86476 34.6629 7.86476Z" fill="#087A82"/>
<path d="M32.3716 65.4696C30.7827 65.4696 29.4395 65.2778 28.2631 65.0423C18.5449 63.0364 12.189 59.1117 8.83542 53.0329C5.6838 47.3378 4.83224 38.5205 6.5968 30.0346C10.082 13.3419 24.655 3.20765 40.4921 6.46945C48.3053 8.08291 55.425 12.8099 60.0164 19.4381C64.7307 26.2408 66.425 34.2558 64.8097 42.0265C63.1944 49.7537 58.2255 55.5621 49.1657 60.324C41.449 64.3794 36.1992 65.4696 32.3716 65.4696ZM6.99185 30.1131C5.23607 38.5118 6.07884 47.2157 9.18657 52.841C12.4874 58.8065 18.7556 62.67 28.3509 64.6498C35.8218 66.1848 43.2926 62.9579 48.9813 59.9752C57.927 55.2743 62.8344 49.5444 64.4234 41.948C66.0212 34.2907 64.3444 26.3717 59.6916 19.6649C55.1529 13.1152 48.1298 8.4492 40.4131 6.86191C24.7955 3.64372 10.4332 13.6384 6.99185 30.1131Z" fill="#087A82"/>
<path d="M33.3109 66.6035C31.1777 66.6035 29.1146 66.3767 27.1394 65.9058C17.4211 63.612 11.0564 59.3124 7.66778 52.7539C4.47226 46.5617 3.69093 37.2037 5.67496 28.9009C7.74678 20.2144 13.0141 12.7751 20.1075 8.50159C26.6214 4.58568 34.0396 3.52167 41.5719 5.42294C51.1584 7.83876 58.4713 12.8449 62.7203 19.883C66.6883 26.4677 67.7769 34.7006 65.7753 43.0644C63.7386 51.5852 58.0323 58.353 49.271 62.644C43.951 65.2604 38.4554 66.6035 33.3109 66.6035ZM34.3556 4.90838C29.4307 4.90838 24.6637 6.23403 20.3182 8.85045C13.3126 13.0716 8.1155 20.415 6.06124 28.9968C4.10354 37.2037 4.8673 46.4571 8.01893 52.5707C11.3461 59.0159 17.623 63.2544 27.2272 65.5133C33.8816 67.0831 41.6421 65.9319 49.0954 62.2864C57.7514 58.0478 63.3875 51.3672 65.389 42.9685C67.3906 34.5873 66.346 26.677 62.3779 20.0836C58.1904 13.1326 50.9565 8.19634 41.4753 5.80668C39.0875 5.21363 36.7084 4.90838 34.3556 4.90838Z" fill="#087A82"/>
<path d="M31.9413 87.9619C31.9413 91.1888 34.3292 93.8052 37.2789 93.8052C38.7625 93.8052 40.1496 93.1337 41.1503 91.9825L42.0195 92.7761C40.7904 94.1803 39.0873 94.9914 37.2789 94.9914C33.6971 94.9914 30.7825 91.8429 30.7825 87.9532C30.7825 84.0722 33.6883 80.915 37.2789 80.915C39.0873 80.915 40.7904 81.7261 42.0195 83.139L41.1503 83.9327C40.1496 82.7814 38.7625 82.1099 37.2789 82.1099C34.3292 82.1186 31.9413 84.735 31.9413 87.9619Z" fill="#087A82"/>
<path d="M58.401 93.7097L57.6285 94.9045H50.6931V81.0288H58.2079L57.4529 82.2149H51.8432V88.5554V93.7097H58.401ZM56.0658 88.5641H51.8432L52.6157 87.378H56.8384L56.0658 88.5641Z" fill="#087A82"/>
<path d="M69.2517 87.9624L75.9763 94.9046H74.361L67.847 88.2066V93.1254L66.6882 94.9307V81.055H67.847V87.7967L73.8167 81.0376H75.3794L69.2517 87.9624Z" fill="#087A82"/>
<path d="M92.7965 91.041C92.7965 93.1603 91.1022 94.9045 89.0216 94.9045H84.0703V81.0288H88.4861C90.4526 81.0288 92.0328 82.6772 92.0328 84.6918C92.0328 85.843 91.5148 86.8721 90.6808 87.5437C91.9274 88.1803 92.7965 89.5147 92.7965 91.041ZM85.2203 88.3461L85.9929 87.1599H88.4773C89.8029 87.1599 90.8652 86.0523 90.8652 84.7005C90.8652 83.3312 89.8029 82.2236 88.4773 82.2236H85.2203V88.3461ZM91.6377 91.041C91.6377 89.5583 90.4613 88.3461 89.0216 88.3461H85.2291V93.7184H89.0216C90.4613 93.7097 91.6377 92.5062 91.6377 91.041Z" fill="#087A82"/>
<path d="M113.691 87.962C113.691 91.843 110.785 95.0001 107.194 95.0001C103.612 95.0001 100.698 91.8517 100.698 87.962C100.698 84.081 103.604 80.9238 107.194 80.9238C110.776 80.9325 113.691 84.081 113.691 87.962ZM112.532 87.962C112.532 84.7351 110.144 82.1187 107.194 82.1187C104.244 82.1187 101.857 84.7351 101.857 87.962C101.857 91.1889 104.244 93.8053 107.194 93.8053C110.144 93.814 112.532 91.1976 112.532 87.962Z" fill="#087A82"/>
<path d="M127.982 82.2149H123.514V92.698L130.836 81.0288H132.205V94.9045L131.046 93.0992V82.869L123.514 94.9045H122.355V81.0288H127.21L127.982 82.2149Z" fill="#087A82"/>
<path d="M141.265 85.0494C141.265 82.8254 143.021 81.0288 145.18 81.0288H150V94.9045L148.841 93.0992V82.2236H145.18C143.662 82.2236 142.424 83.4882 142.424 85.0581C142.424 86.6018 143.653 87.8751 145.18 87.8751H147.068L142.652 94.9133H141.265L144.943 89.0699C142.898 88.9391 141.265 87.1687 141.265 85.0494Z" fill="#087A82"/>
</svg>
