<svg width="161" height="102" viewBox="0 0 161 102" fill="none" xmlns="http://www.w3.org/2000/svg">
<path d="M37.233 75.6778C34.4345 75.6778 31.6454 75.3969 28.9128 74.8351C17.2004 72.4192 8.58804 66.7446 3.98977 58.4199C0.0133979 51.2284 -0.975986 42.2483 0.955665 30.9927C3.6694 15.1769 12.1781 8.21947 18.8399 5.17616C26.6231 1.61784 34.4439 -1.39738 44.5544 0.681433C57.5766 3.3689 68.62 10.8039 74.0945 20.58C78.4949 28.4457 79.0509 37.4165 75.7058 46.537C71.1735 58.8601 65.2184 66.4168 56.4082 71.052C50.6038 74.0953 43.9231 75.6778 37.233 75.6778ZM37.9397 2.57295C31.4004 2.57295 25.8221 4.82033 19.9141 7.51717C11.1793 11.5156 5.50681 19.7746 3.5092 31.4235C1.6812 42.0891 2.57637 50.5167 6.26064 57.1839C10.482 64.8343 18.5007 70.0688 29.4405 72.3161C38.1187 74.1047 47.4943 72.8124 55.1832 68.7765C63.3904 64.4597 68.9686 57.3337 73.2653 45.6568C76.356 37.2666 75.8566 29.0263 71.8331 21.8441C66.7166 12.7142 56.3234 5.74736 44.0268 3.20971C41.8878 2.7696 39.8714 2.57295 37.9397 2.57295Z" fill="white" fill-opacity="0.5"/>
<path d="M37.3271 72.2694C34.783 72.2694 32.2389 72.0166 29.7513 71.5016C19.0942 69.3104 11.264 64.1696 7.10858 56.6409C3.49969 50.1142 2.60454 41.93 4.376 31.6296C6.25112 20.7018 10.774 12.7517 17.8127 7.97609C24.6819 3.32218 33.7277 1.97376 43.9701 4.09003C55.871 6.5434 65.9532 13.3229 70.9378 22.2188C74.9142 29.3167 75.4136 37.4259 72.3795 45.6756C68.2335 56.9499 62.8061 63.8605 54.7968 68.065C49.5106 70.8274 43.4142 72.2694 37.3271 72.2694ZM4.80002 31.6951C3.0474 41.9019 3.9237 49.9924 7.48548 56.4349C11.5843 63.8512 19.3109 68.9171 29.8361 71.0896C38.1752 72.8032 47.1927 71.5671 54.5801 67.681C62.4951 63.5234 67.8566 56.6877 71.9555 45.5164C74.9425 37.3885 74.4619 29.401 70.5421 22.4154C65.614 13.6226 55.6448 6.92733 43.8665 4.50205C33.7371 2.41387 24.8044 3.7342 18.0389 8.32257C11.1038 13.0233 6.64687 20.8891 4.80002 31.6951Z" fill="white" fill-opacity="0.5"/>
<path d="M33.04 64.9278C31.1084 64.9278 29.1485 64.6188 27.1414 63.8416C18.1993 60.3863 12.8566 55.8541 10.7931 49.9735C8.1547 42.4542 11.3773 32.6969 12.8755 28.8483C18.5856 14.2498 33.3415 7.28299 47.1835 12.6298C54.0149 15.2705 59.7345 20.6267 62.8817 27.3313C66.1042 34.2045 66.4152 41.7238 63.758 48.5221C60.6296 56.519 52.8465 59.6559 45.8078 61.9782C45.412 62.1093 45.0163 62.2404 44.6205 62.3715C40.6912 63.6731 36.9127 64.9278 33.04 64.9278ZM13.2806 29.0075C11.7919 32.8093 8.60698 42.4542 11.1982 49.833C13.2147 55.5826 18.482 60.0305 27.2922 63.439C33.1814 65.7144 38.6654 63.8884 44.4792 61.9595C44.8749 61.8284 45.2707 61.6973 45.6664 61.5662C52.6204 59.2813 60.2904 56.1818 63.3528 48.3629C68.7049 34.7008 61.2233 18.5198 47.0233 13.0325C33.4169 7.76991 18.906 14.6431 13.2806 29.0075Z" fill="white" fill-opacity="0.5"/>
<path d="M34.3496 57.3431C32.8514 57.3431 31.3343 57.0903 29.8078 56.4535C23.4946 53.8129 19.7632 50.4699 18.3969 46.2187C16.6632 40.7969 19.1508 33.8863 20.3003 31.1707C24.6725 20.8515 35.3484 16.1508 45.1291 20.2522C55.3245 24.5129 60.4222 36.4052 56.2668 46.2187C53.8734 51.8745 48.2575 53.9721 43.1786 55.489C42.8959 55.5733 42.6133 55.6576 42.3306 55.7419C39.7299 56.5378 37.0539 57.3431 34.3496 57.3431ZM20.6961 31.3392C19.5654 34.0173 17.1155 40.8063 18.8115 46.0969C20.1307 50.2171 23.7867 53.4758 29.9774 56.0602C34.1046 57.7832 38.0433 56.594 42.2175 55.3298C42.5002 55.2456 42.7829 55.1613 43.0656 55.077C48.0502 53.5881 53.5624 51.5374 55.8804 46.0501C59.9416 36.452 54.9476 24.8219 44.9689 20.6455C35.4049 16.6471 24.974 21.2448 20.6961 31.3392Z" fill="white" fill-opacity="0.5"/>
<path d="M37.101 44.477C36.6204 44.477 36.1399 44.4021 35.6499 44.1961C33.6712 43.3721 32.5027 42.3139 32.0693 40.9655C31.5228 39.2519 32.2954 37.0982 32.6535 36.2461C33.3037 34.7104 34.4438 33.5118 35.8666 32.8656C37.3177 32.2008 38.9573 32.1914 40.4649 32.8188C43.6592 34.1579 45.2611 37.8941 43.9607 40.9749C43.1975 42.7634 41.4449 43.4283 39.8524 43.8965L39.5886 43.9807C38.7688 44.2242 37.949 44.477 37.101 44.477ZM33.0493 36.4146C32.71 37.2199 31.9751 39.2613 32.4745 40.8344C32.8608 42.0518 33.9538 43.0256 35.8101 43.8028C37.0256 44.3085 38.2035 43.9526 39.4567 43.5781L39.7205 43.4938C41.2187 43.0443 42.8677 42.4357 43.5556 40.8157C44.7711 37.9503 43.2729 34.4763 40.2953 33.2215C38.8913 32.6409 37.3837 32.6503 36.0457 33.2589C34.7265 33.8489 33.6617 34.9726 33.0493 36.4146Z" fill="white" fill-opacity="0.5"/>
<path d="M37.3084 43.5126C36.9032 43.5126 36.498 43.4471 36.0929 43.2692C34.4439 42.5762 33.4639 41.696 33.0964 40.5723C32.6347 39.1396 33.2849 37.3417 33.5864 36.6301C34.1329 35.3472 35.0846 34.3453 36.2719 33.8021C37.4874 33.2497 38.8537 33.2403 40.1163 33.7647C42.7924 34.879 44.1304 38.0066 43.0374 40.5817C42.406 42.0893 40.9361 42.6324 39.6075 43.0351L39.3908 43.1006C38.7029 43.2972 38.0151 43.5126 37.3084 43.5126ZM38.213 33.8115C37.6099 33.8115 37.0069 33.9426 36.4415 34.1954C35.3579 34.6917 34.4816 35.6094 33.9822 36.7986C33.398 38.1845 33.2189 39.5423 33.511 40.4412C33.8314 41.4432 34.7266 42.2391 36.2625 42.8759C37.2613 43.2973 38.2318 42.9976 39.2683 42.6886L39.485 42.6231C40.7194 42.2579 42.0762 41.7522 42.6416 40.4225C43.6404 38.0628 42.406 35.1974 39.9561 34.1674C39.3814 33.9239 38.7972 33.8115 38.213 33.8115Z" fill="white" fill-opacity="0.5"/>
<path d="M36.941 45.2261C36.4039 45.2261 35.8574 45.1324 35.3109 44.9077C33.0777 43.9713 31.7585 42.7821 31.2686 41.2651C30.6467 39.3361 31.5324 36.9015 31.9376 35.937C33.4829 32.2756 37.2708 30.6182 40.7478 32.0696C42.4627 32.7813 43.8667 34.1765 44.6205 35.8995C45.3932 37.6599 45.412 39.5702 44.6959 41.2745C43.8384 43.2971 41.8502 44.0368 40.0599 44.5706L39.7584 44.6642C38.835 44.9452 37.8927 45.2261 36.941 45.2261ZM32.3239 36.1055C31.9376 37.0232 31.0989 39.3454 31.6737 41.134C32.1166 42.5199 33.3604 43.6248 35.4711 44.505C36.8562 45.0856 38.2037 44.683 39.6265 44.2522L39.928 44.1586C41.6241 43.6529 43.5086 42.9506 44.2907 41.1059C44.9691 39.514 44.9409 37.7255 44.2153 36.0681C43.5086 34.4481 42.18 33.1371 40.5688 32.4629C37.3273 31.1051 33.7844 32.6783 32.3239 36.1055Z" fill="white" fill-opacity="0.5"/>
<path d="M36.8373 46.3311C36.3096 46.3311 35.7725 46.2468 35.226 46.0596C32.5877 45.1138 30.9858 43.8216 30.3356 42.1079C29.5064 39.9168 30.3733 37.0514 30.7785 35.9183C31.5229 33.8676 32.9175 32.2289 34.7266 31.2925C36.5735 30.3374 38.6936 30.2063 40.71 30.918C42.7265 31.639 44.4414 33.1653 45.4119 35.1037C46.4107 37.0888 46.5521 39.2894 45.8265 41.3026C44.9691 43.6811 42.717 44.6643 40.6817 45.3853L40.3519 45.5071C39.2118 45.9191 38.0528 46.3311 36.8373 46.3311ZM38.1093 30.8899C37.0069 30.8899 35.9233 31.1521 34.9245 31.6671C33.219 32.5567 31.8904 34.1111 31.1837 36.0588C30.7879 37.145 29.9587 39.898 30.7314 41.9488C31.3344 43.5406 32.8515 44.7486 35.3673 45.6475C37.0257 46.2375 38.5616 45.685 40.1918 45.0951L40.5216 44.9733C42.472 44.2804 44.611 43.3534 45.4119 41.1434C46.0998 39.2426 45.9585 37.1637 45.0162 35.2816C44.0928 33.4462 42.472 31.9948 40.5498 31.3112C39.7583 31.0303 38.9291 30.8899 38.1093 30.8899Z" fill="white" fill-opacity="0.5"/>
<path d="M36.3284 46.9959C35.2919 46.9959 34.2648 46.8086 33.2848 46.2281C30.59 44.6362 29.0541 42.8102 28.7054 40.7876C28.2531 38.1844 29.8361 35.1692 30.5428 33.9986C31.8149 31.8824 33.7277 30.3467 35.9326 29.6912C38.1941 29.017 40.5874 29.326 42.6604 30.5527C47.0702 33.1559 48.6438 38.9429 46.1091 43.1941C44.6392 45.6569 41.9254 46.2655 39.4944 46.6401L39.0987 46.7056C38.1752 46.8554 37.2424 46.9959 36.3284 46.9959ZM38.2977 29.7755C37.5439 29.7755 36.7807 29.8878 36.0457 30.1032C33.9444 30.7306 32.1164 32.1914 30.9009 34.214C30.2225 35.3471 28.696 38.2499 29.12 40.7127C29.4498 42.6042 30.9198 44.3272 33.5016 45.8535C35.2259 46.8742 37.0728 46.5839 39.0233 46.2749L39.4284 46.2093C41.7558 45.8535 44.3565 45.2729 45.7322 42.9694C48.1538 38.9241 46.6462 33.3994 42.4343 30.9179C41.1339 30.1688 39.7205 29.7755 38.2977 29.7755Z" fill="white" fill-opacity="0.5"/>
<path d="M36.0362 48.4378C34.9997 48.4378 33.9726 48.2505 32.9644 47.7261C29.7042 46.0219 27.8667 44.0648 27.3296 41.7238C26.6512 38.7366 28.2908 35.1596 29.0351 33.7644C31.8525 28.4456 37.7794 26.4136 42.83 29.0543C48.0878 31.7979 50.2645 38.3902 47.5884 43.4561C46.0431 46.3871 42.943 47.2486 40.1633 47.8291L39.7016 47.9227C38.4955 48.1756 37.2612 48.4378 36.0362 48.4378ZM29.4121 33.961C28.6959 35.3188 27.0941 38.7835 27.7442 41.6302C28.2436 43.8401 30.0151 45.7128 33.1529 47.3515C35.2259 48.4378 37.3554 47.9883 39.598 47.5107L40.0597 47.4171C42.7452 46.8553 45.7322 46.0219 47.1927 43.2595C49.7556 38.3996 47.6638 32.0788 42.6132 29.4382C37.7982 26.9005 32.1164 28.8483 29.4121 33.961Z" fill="white" fill-opacity="0.5"/>
<path d="M35.9799 49.7114C35.0848 49.7114 34.1802 49.5616 33.2756 49.187C29.5348 47.6232 27.3205 45.6287 26.5101 43.1098C25.483 39.8886 26.953 35.7965 27.6314 34.1952C28.8658 31.2924 31.0141 29.0169 33.6902 27.7996C36.4322 26.5542 39.5134 26.5261 42.3591 27.7153C48.399 30.2436 51.4237 37.2947 48.9644 43.1098C47.5416 46.4715 44.2153 47.7169 41.2001 48.6158L40.7101 48.7656C39.1648 49.2338 37.5912 49.7114 35.9799 49.7114ZM28.0272 34.3544C27.3676 35.9182 25.9353 39.8885 26.9153 42.9787C27.6879 45.3759 29.8175 47.2768 33.4358 48.7937C35.8386 49.7957 38.1377 49.1027 40.5782 48.363L41.0682 48.2132C43.9798 47.3423 47.2023 46.1437 48.5592 42.9506C50.9337 37.3415 48.0127 30.5526 42.1895 28.118C39.4475 26.9756 36.4982 27.0037 33.8692 28.1929C31.2874 29.354 29.2144 31.5452 28.0272 34.3544Z" fill="white" fill-opacity="0.5"/>
<path d="M35.7631 50.6947C34.7926 50.6947 33.8126 50.5354 32.8138 50.1234C28.7338 48.4192 26.3216 46.2561 25.4453 43.5031C24.324 39.9916 25.9258 35.5343 26.6702 33.7832C29.497 27.1161 36.3944 24.0821 42.7171 26.7228C45.836 28.0244 48.4084 30.5714 49.7746 33.699C51.1786 36.9108 51.2258 40.3942 49.9066 43.4937C48.3518 47.1551 44.7241 48.5128 41.4544 49.4961L40.9079 49.6646C39.2307 50.1796 37.5157 50.6947 35.7631 50.6947ZM27.0754 33.9518C26.3499 35.6654 24.7857 40.0009 25.8693 43.372C26.7079 45.9939 29.0353 48.0727 32.9928 49.7302C35.6218 50.8257 38.1282 50.0673 40.7948 49.262L41.3413 49.0934C44.5262 48.1383 48.0503 46.8273 49.5296 43.3439C50.8017 40.3474 50.7546 36.9857 49.3977 33.8862C48.0786 30.8523 45.5816 28.3896 42.5663 27.1348C36.4604 24.5691 29.7986 27.5093 27.0754 33.9518Z" fill="white" fill-opacity="0.5"/>
<path d="M35.8197 51.5937C34.9434 51.5937 34.0482 51.4626 33.1342 51.1348C28.7055 49.5523 26.0295 47.3892 24.9365 44.5238C23.5419 40.8625 25.0024 36.0401 25.6903 34.1392C28.3098 26.9101 35.4616 23.305 42.3307 25.7584C49.4731 28.3147 53.4024 36.2835 50.9148 43.1661C49.4731 47.1364 45.7041 48.7751 42.2742 50.0018L41.7088 50.2078C39.796 50.882 37.8455 51.5937 35.8197 51.5937ZM37.9869 25.4119C32.8232 25.4119 28.1025 28.7549 26.0954 34.2796C25.4264 36.1337 24.0036 40.8344 25.3416 44.3646C26.3876 47.1083 28.9788 49.1871 33.285 50.7228C36.14 51.7435 38.7784 50.7977 41.5675 49.7864L42.1329 49.5804C45.4685 48.3912 49.1339 46.7993 50.5096 43.0069C52.9218 36.349 49.1151 28.6237 42.1894 26.1516C40.776 25.6553 39.3626 25.4119 37.9869 25.4119Z" fill="white" fill-opacity="0.5"/>
<path d="M35.2543 54.4591C34.1802 54.4591 33.0871 54.2999 31.9847 53.8972C26.576 51.9589 23.297 49.3182 21.9684 45.8254C20.2723 41.3588 22.0437 35.4595 22.8918 33.1372C24.4088 28.9421 27.2827 25.5711 30.9764 23.6515C34.7549 21.6944 39.0988 21.4228 43.2165 22.893C51.9419 26.0206 56.7475 35.7591 53.704 44.1586C51.9514 49.0092 47.3342 51.0131 43.1506 52.5114L42.4533 52.7642C40.1165 53.5976 37.7325 54.4591 35.2543 54.4591ZM37.9021 22.3873C35.5747 22.3873 33.285 22.9398 31.1743 24.0354C27.5749 25.9082 24.7763 29.1856 23.2969 33.287C22.4677 35.5719 20.7246 41.3494 22.3735 45.685C23.655 49.056 26.8493 51.6124 32.126 53.5039C35.6407 54.7587 38.8727 53.5976 42.2931 52.3615L42.9904 52.1087C47.0798 50.6479 51.5933 48.6908 53.2894 44.0182C56.2575 35.834 51.5744 26.3483 43.0658 23.2956C41.3697 22.687 39.6265 22.3873 37.9021 22.3873Z" fill="white" fill-opacity="0.5"/>
<path d="M34.9432 52.7174C33.2094 52.7174 31.4945 52.4083 29.855 51.4345C25.2661 48.7283 22.7503 45.7412 22.1566 42.3233C21.4028 37.9503 24.06 32.8937 25.2473 30.9179C27.3768 27.3596 30.5899 24.7939 34.2931 23.6889C38.081 22.5652 42.095 23.0802 45.5814 25.1403C49.0866 27.2098 51.7344 30.6745 52.8463 34.6354C53.9865 38.6994 53.4588 42.8664 51.3764 46.3498C48.9171 50.4606 44.3565 51.4813 40.2765 52.1087L39.598 52.2117C38.0527 52.4645 36.4885 52.7174 34.9432 52.7174ZM25.6148 31.1427C24.4558 33.0716 21.8551 38.0252 22.5806 42.2577C23.146 45.5445 25.5959 48.4286 30.0717 51.0787C33.0492 52.8391 36.1964 52.3428 39.5226 51.809L40.2011 51.706C44.1869 51.088 48.6344 50.1048 50.9901 46.1438C53.0159 42.754 53.5247 38.7181 52.4223 34.7571C51.3387 30.8992 48.7663 27.5281 45.3553 25.5149C41.9725 23.511 38.081 23.0147 34.4061 24.1103C30.8161 25.1778 27.6877 27.678 25.6148 31.1427Z" fill="white" fill-opacity="0.5"/>
<path d="M34.4533 55.1519C32.7196 55.1519 30.9952 54.8429 29.3086 53.9627C23.834 51.1067 20.7339 47.8105 19.8387 43.887C18.6986 38.8772 21.4689 32.8562 22.7127 30.5058C27.4429 21.5632 37.4026 18.1547 45.8925 22.5839C54.7215 27.191 58.387 38.278 53.8923 46.7805C51.3011 51.6872 46.0904 53.1387 41.4073 54.1219L40.6346 54.2811C38.5993 54.7118 36.5263 55.1519 34.4533 55.1519ZM23.099 30.7025C21.8741 33.0154 19.1509 38.9241 20.2628 43.7934C21.1297 47.5858 24.1543 50.7883 29.5064 53.5788C33.0776 55.4422 36.7054 54.6744 40.5404 53.8597L41.313 53.7005C45.9019 52.7454 51.009 51.322 53.506 46.5838C57.8876 38.2873 54.3069 27.4719 45.6852 22.9678C37.4309 18.6416 27.7161 21.9752 23.099 30.7025Z" fill="white" fill-opacity="0.5"/>
<path d="M35.3486 59.1316C34.4346 59.1316 33.5017 59.0287 32.5312 58.8039C25.4453 57.1278 20.9413 54.2717 18.7646 50.0579C15.9849 44.6736 17.3795 36.9951 18.1145 33.9424C20.8753 22.3592 31.2403 15.5796 42.2271 18.1641C47.6452 19.4376 52.5167 22.8835 55.5885 27.5936C58.7357 32.4348 59.7628 38.0626 58.4813 43.4563C56.9642 49.8051 51.4425 52.9795 46.3825 55.4516C46.0999 55.592 45.8172 55.7325 45.5345 55.8636C42.18 57.5398 38.9575 59.1316 35.3486 59.1316ZM37.5818 18.0517C28.6396 18.0517 20.8565 24.3256 18.5385 34.0455C17.8224 37.0513 16.4467 44.6081 19.1604 49.8613C21.2711 53.9533 25.6809 56.7438 32.6443 58.3825C37.2897 59.4781 41.2095 57.5398 45.3649 55.489C45.6476 55.3486 45.9303 55.2081 46.2129 55.0677C51.1787 52.633 56.6062 49.5242 58.0761 43.3533C59.3387 38.0814 58.3305 32.5659 55.2399 27.8277C52.2246 23.2019 47.4567 19.8309 42.1423 18.5761C40.597 18.2203 39.08 18.0517 37.5818 18.0517Z" fill="white" fill-opacity="0.5"/>
<path d="M34.6888 63.6825C33.5769 63.6825 32.4368 63.5608 31.2495 63.2799C22.5712 61.2385 17.0684 57.7364 14.4112 52.5956C11.0096 46.0127 12.7245 36.6205 13.6102 32.8843C16.993 18.7165 29.6759 10.42 43.1033 13.5851C57.096 16.8812 66.1982 31.049 62.9851 44.5144C61.1288 52.2772 54.3728 56.1539 48.1915 59.1878C47.8429 59.3564 47.5036 59.5249 47.155 59.7028C43.0373 61.7348 39.0892 63.6825 34.6888 63.6825ZM14.0343 32.9779C13.158 36.6674 11.4619 45.9378 14.7975 52.3989C17.3887 57.4274 22.8068 60.8546 31.3437 62.8679C37.0539 64.2163 41.8689 61.8378 46.9571 59.3189C47.3058 59.1504 47.645 58.9818 47.9936 58.8039C54.0901 55.8168 60.7519 51.9963 62.5611 44.4208C65.7177 31.1801 56.7661 17.2464 42.9996 14.0065C29.8173 10.8976 17.3605 19.0537 14.0343 32.9779Z" fill="white" fill-opacity="0.5"/>
<path d="M33.4168 61.0794C31.4757 61.0794 29.5252 60.7423 27.5465 59.8528C20.0083 56.4723 15.6079 52.3241 14.1003 47.1739C12.1686 40.5816 15.3912 32.3226 16.8611 29.0732C19.5183 23.2207 24.013 18.7166 29.5252 16.3756C35.16 13.9878 41.4167 14.0814 47.1456 16.6565C59.3103 22.1064 65.0959 36.6019 59.7815 48.3163C56.7191 55.0677 49.8782 57.4181 43.7064 59.0943C43.3577 59.1879 43.0185 59.2815 42.6699 59.3752C39.5227 60.2367 36.4698 61.0794 33.4168 61.0794ZM37.9585 15.074C35.1411 15.074 32.352 15.6359 29.6948 16.7595C24.2862 19.0537 19.867 23.4829 17.2569 29.2418C15.8058 32.4443 12.6303 40.591 14.5149 47.0428C15.9848 52.0713 20.3098 56.1259 27.7255 59.4501C32.6724 61.6694 37.478 60.349 42.5568 58.9444C42.9054 58.8508 43.2447 58.7571 43.5933 58.6635C49.6709 57.0154 56.4081 54.7025 59.3951 48.1196C61.9487 42.5012 62.0241 36.1243 59.6024 30.1688C57.2373 24.3538 52.6391 19.5687 46.976 17.0311C44.055 15.7295 40.9926 15.074 37.9585 15.074Z" fill="white" fill-opacity="0.5"/>
<path d="M34.1612 67.2971C32.8891 67.2971 31.5794 67.1566 30.232 66.8383C20.3004 64.4973 13.9966 60.4988 10.9625 54.6089C9.67163 52.0993 6.98617 44.8703 10.0485 32.0416C13.9213 15.8231 28.4322 6.32801 43.81 9.95188C51.3953 11.7404 58.2173 16.5535 62.5235 23.1551C66.9333 29.9253 68.375 37.8098 66.5752 45.3572C64.4551 54.2343 56.7191 58.6822 49.6333 62.1469C49.2375 62.3435 48.8417 62.5402 48.446 62.7275C43.7158 65.0685 39.2023 67.2971 34.1612 67.2971ZM10.4631 32.1352C7.43846 44.8235 10.0674 51.9401 11.3395 54.4122C14.317 60.1805 20.5266 64.1133 30.3262 66.4262C36.875 67.9713 42.3966 65.2464 48.2481 62.3529C48.6439 62.1562 49.0396 61.9596 49.4354 61.7723C56.4364 58.3451 64.0688 53.9627 66.1418 45.2636C69.7695 30.0751 59.4894 14.0908 43.7064 10.3733C28.5735 6.79621 14.2793 16.1602 10.4631 32.1352Z" fill="white" fill-opacity="0.5"/>
<path d="M34.7926 68.58C33.4734 68.58 32.1354 68.4489 30.7691 68.168C20.3758 66.0237 13.7046 62.0533 10.369 56.0135C8.94614 53.4384 5.9403 46.0128 8.74826 32.5754C12.2912 15.5984 27.0942 5.3074 43.1882 8.62226C51.1315 10.261 58.3681 15.0647 63.0324 21.8068C67.8191 28.7174 69.5528 36.8735 67.9039 44.7673C65.8592 54.5808 58.0949 59.7779 51.5649 63.2145C46.3259 65.9675 40.776 68.58 34.7926 68.58ZM37.2048 8.44434C23.7586 8.44434 12.2252 18.0424 9.17228 32.6784C8.24886 37.1076 6.55277 48.2227 10.7459 55.8262C14.0155 61.7443 20.5926 65.6491 30.8539 67.7654C32.1825 68.0369 33.4922 68.1586 34.7831 68.1586C40.6817 68.1586 46.1752 65.5742 51.3671 62.8492C57.8122 59.4595 65.4728 54.3374 67.4893 44.7018C70.8061 28.7924 59.6402 12.4709 43.1128 9.06237C41.1058 8.64099 39.1364 8.44434 37.2048 8.44434Z" fill="white" fill-opacity="0.5"/>
<path d="M34.7454 70.2935C33.0399 70.2935 31.5982 70.0875 30.3356 69.8347C19.9047 67.6809 13.0827 63.4671 9.4832 56.9404C6.10046 50.8257 5.18645 41.3587 7.08041 32.2475C10.8212 14.3248 26.4629 3.4438 43.4614 6.94594C51.8476 8.67828 59.4894 13.7536 64.4175 20.8702C69.4774 28.1742 71.296 36.7797 69.5622 45.123C67.8285 53.4195 62.4952 59.656 52.771 64.7687C44.4885 69.123 38.8537 70.2935 34.7454 70.2935ZM7.50443 32.3318C5.61989 41.3493 6.52447 50.6946 9.8601 56.7344C13.403 63.1394 20.1308 67.2876 30.4298 69.4133C38.4485 71.0613 46.4672 67.5967 52.5731 64.3942C62.1749 59.347 67.4421 53.1948 69.1476 45.0387C70.8626 36.8171 69.0629 28.3146 64.0688 21.1137C59.1973 14.0813 51.6591 9.07157 43.3766 7.36732C26.6136 3.91199 11.1981 14.6431 7.50443 32.3318Z" fill="white" fill-opacity="0.5"/>
<path d="M35.7538 71.5109C33.4641 71.5109 31.2497 71.2675 29.1296 70.7618C18.6987 68.2991 11.8673 63.6826 8.23011 56.6409C4.80025 49.9925 3.96163 39.9449 6.09116 31.0303C8.31491 21.7038 13.9685 13.7162 21.5821 9.12787C28.5737 4.92342 36.5359 3.78101 44.6205 5.82237C54.9101 8.4162 62.7592 13.7912 67.3198 21.3479C71.5788 28.4178 72.7472 37.2574 70.5989 46.2375C68.4128 55.3861 62.288 62.6526 52.8842 67.2597C47.1741 70.0689 41.2755 71.5109 35.7538 71.5109ZM36.8751 5.2699C31.5889 5.2699 26.4724 6.69323 21.8082 9.50244C14.2889 14.0346 8.71066 21.9191 6.50576 31.1333C4.4045 39.9448 5.22427 49.8801 8.60701 56.4442C12.1782 63.3642 18.9154 67.9152 29.2239 70.3404C36.3663 72.026 44.6959 70.7899 52.6958 66.8758C61.9865 62.3249 68.0359 55.152 70.1843 46.1345C72.3326 37.1357 71.2114 28.6425 66.9523 21.5633C62.4577 14.1002 54.6934 8.80013 44.5169 6.23439C41.9539 5.59764 39.4004 5.2699 36.8751 5.2699Z" fill="white" fill-opacity="0.5"/>
<path d="M34.2838 94.4431C34.2838 97.9078 36.8468 100.717 40.0128 100.717C41.6053 100.717 43.094 99.9959 44.1682 98.7599L45.1011 99.612C43.7819 101.12 41.9539 101.99 40.0128 101.99C36.1684 101.99 33.04 98.6101 33.04 94.4337C33.04 90.2667 36.159 86.877 40.0128 86.877C41.9539 86.877 43.7819 87.7478 45.1011 89.2648L44.1682 90.1169C43.094 88.8809 41.6053 88.1598 40.0128 88.1598C36.8468 88.1692 34.2838 90.9784 34.2838 94.4431Z" fill="white" fill-opacity="0.5"/>
<path d="M62.6838 100.614L61.8546 101.897H54.4106V86.999H62.4765L61.6661 88.2725H55.645V95.0802V100.614H62.6838ZM60.1773 95.0895H55.645L56.4742 93.816H61.0065L60.1773 95.0895Z" fill="white" fill-opacity="0.5"/>
<path d="M74.3303 94.4433L81.5481 101.897H79.8143L72.8226 94.7055V99.9868L71.5789 101.925V87.027H72.8226V94.2654L79.2301 87.0083H80.9073L74.3303 94.4433Z" fill="white" fill-opacity="0.5"/>
<path d="M99.602 97.7489C99.602 100.024 97.7834 101.897 95.5502 101.897H90.2358V86.999H94.9754C97.0861 86.999 98.7822 88.7688 98.7822 90.9319C98.7822 92.168 98.2263 93.2729 97.3311 93.9939C98.6691 94.6775 99.602 96.1102 99.602 97.7489ZM91.4702 94.8554L92.2994 93.5819H94.966C96.3888 93.5819 97.529 92.3927 97.529 90.9413C97.529 89.4711 96.3888 88.2819 94.966 88.2819H91.4702V94.8554ZM98.3582 97.7489C98.3582 96.157 97.0955 94.8554 95.5502 94.8554H91.4796V100.624H95.5502C97.0955 100.614 98.3582 99.3221 98.3582 97.7489Z" fill="white" fill-opacity="0.5"/>
<path d="M122.028 94.443C122.028 98.61 118.909 102 115.055 102C111.211 102 108.082 98.6193 108.082 94.443C108.082 90.276 111.201 86.8862 115.055 86.8862C118.9 86.8956 122.028 90.276 122.028 94.443ZM120.784 94.443C120.784 90.9783 118.221 88.1691 115.055 88.1691C111.889 88.1691 109.326 90.9783 109.326 94.443C109.326 97.9077 111.889 100.717 115.055 100.717C118.221 100.726 120.784 97.917 120.784 94.443Z" fill="white" fill-opacity="0.5"/>
<path d="M137.368 88.2725H132.572V99.5281L140.43 86.999H141.9V101.897L140.657 99.9588V88.9748L132.572 101.897H131.328V86.999H136.539L137.368 88.2725Z" fill="white" fill-opacity="0.5"/>
<path d="M151.625 91.3158C151.625 88.928 153.509 86.999 155.827 86.999H161V101.897L159.756 99.9588V88.2819H155.827C154.197 88.2819 152.868 89.6397 152.868 91.3252C152.868 92.9826 154.188 94.3498 155.827 94.3498H157.853L153.113 101.907H151.625L155.573 95.6326C153.377 95.4922 151.625 93.5913 151.625 91.3158Z" fill="white" fill-opacity="0.5"/>
</svg>
